<svg width="25" height="29" viewBox="0 0 25 29" fill="none" xmlns="http://www.w3.org/2000/svg">
<path d="M24.4752 22.5998C24.0428 23.5847 23.5084 24.5239 22.8806 25.4027C22.0419 26.573 21.3532 27.3816 20.8253 27.8317C20.0053 28.5672 19.1244 28.9456 18.1827 28.9669C17.508 28.9669 16.6927 28.7792 15.7431 28.3978C14.7904 28.0179 13.9158 27.8317 13.1146 27.8317C12.2759 27.8317 11.3763 28.0179 10.4126 28.3978C9.45055 28.7792 8.67277 28.9791 8.07772 28.9974C7.17655 29.0356 6.27538 28.648 5.37733 27.8317C4.80415 27.3435 4.08727 26.5043 3.22671 25.3173C2.30524 24.0524 1.54776 22.58 0.95427 20.9062C0.318611 19.0951 0 17.3435 0 15.6469C0 13.7046 0.4295 12.0277 1.29006 10.624C1.94095 9.52158 2.87147 8.60148 3.992 7.95236C5.09694 7.30493 6.35829 6.95631 7.64666 6.9423C8.36509 6.9423 9.30687 7.15896 10.4735 7.58617C11.6402 8.01339 12.3899 8.23005 12.7163 8.23005C12.9631 8.23005 13.7924 7.97525 15.2043 7.47022C16.5365 7.0018 17.661 6.80803 18.5825 6.88432C21.0814 7.08114 22.9571 8.04238 24.205 9.77567C21.9716 11.0985 20.8674 12.9493 20.8893 15.3249C20.908 17.1757 21.5968 18.7152 22.9462 19.9374C23.5428 20.4951 24.2389 20.9414 25 21.2541C24.8344 21.7225 24.6595 22.1696 24.4752 22.5998ZM18.748 0.581322C18.748 2.03081 18.2045 3.3857 17.1253 4.63837C15.8196 6.12753 14.2422 6.9896 12.532 6.8538C12.5096 6.67153 12.4987 6.4881 12.4992 6.30452C12.4992 4.91148 13.1177 3.42232 14.2219 2.20323C14.7717 1.58681 15.4714 1.07262 16.3194 0.663714C17.1659 0.260908 17.9656 0.0381445 18.7184 0C18.7387 0.1953 18.748 0.389074 18.748 0.581322Z" fill="black"/>
</svg>
