<svg width="212" height="122" viewBox="0 0 212 122" fill="none" xmlns="http://www.w3.org/2000/svg">
<g clip-path="url(#clip0_2_617)">
<path d="M148.427 31.8927C148.187 30.0299 147.801 28.1886 147.273 26.3856C146.688 24.362 145.93 22.3923 145.006 20.4982C143.758 17.9544 142.309 15.5343 140.465 13.3689L137.309 9.90536C137.224 9.81357 137.136 9.71804 137.044 9.63936C133.809 6.70035 130.213 4.33265 126.106 2.75357C124.797 2.22918 123.456 1.79116 122.089 1.44234C120.773 1.12765 119.458 0.897248 118.117 0.693072C116.479 0.413946 114.827 0.226335 113.168 0.131119C109.909 -0.0224813 106.64 -0.0842961 103.394 0.318437C102.127 0.472037 100.847 0.571316 99.5969 0.818575C97.9484 1.14451 96.3112 1.52851 94.6777 1.94248C92.9654 2.37518 91.2943 2.8978 89.6327 3.48411C87.541 4.22963 85.503 5.1171 83.5331 6.14027C81.309 7.2948 79.1668 8.5997 77.1215 10.0458C72.396 13.3764 68.4073 17.4074 65.2795 22.2683C64.3227 23.7575 63.5051 25.3047 63.2119 27.0805C63.0013 28.3412 63.7194 29.5156 64.9036 29.703C65.6018 29.822 66.3164 29.8067 67.0088 29.658C68.9677 29.2044 70.8213 28.381 72.4693 27.2322C73.7982 26.335 75.1196 25.419 76.4467 24.5236C77.5238 23.7968 78.7023 23.1806 79.8395 22.5418C81.8715 21.4067 83.8959 20.2434 86.0425 19.3387C88.1402 18.4508 90.2736 17.6303 92.4447 16.9035C94.2758 16.3054 96.1421 15.82 98.033 15.45C100.29 14.9915 102.583 14.732 104.886 14.6745C109.473 14.5733 113.909 15.1709 118.044 17.2969C119.709 18.1331 121.215 19.2526 122.493 20.6049C123.907 22.1185 124.911 23.8924 125.223 25.9042C125.599 28.1573 125.3 30.471 124.364 32.5558C123.356 34.7699 121.988 36.6918 119.995 38.1454C119.067 38.8216 118.025 39.3386 117.176 40.1272C116.501 40.7528 116.48 41.2024 117.138 41.8299C117.924 42.5792 118.867 43.1112 119.77 43.6881C121.388 44.7127 122.202 46.3293 122.865 47.9964C123.146 48.7063 123.241 49.5212 123.36 50.306C123.558 51.7713 123.487 53.2604 123.151 54.7005C122.807 56.2126 122.19 57.6497 121.33 58.9414C121.294 58.9957 121.26 59.0519 121.226 59.1062C121.114 59.2935 120.572 60.054 120.49 60.1683C120.407 60.2826 119.661 61.0187 119.516 61.1573C118.971 61.6893 118.42 62.1576 118.1 62.418C114.529 65.3383 110.339 66.6027 105.794 66.8593C104.052 66.9426 102.305 66.8844 100.572 66.6851C99.1014 66.531 97.6421 66.2807 96.204 65.9358C94.2657 65.4973 92.3816 64.8478 90.5857 63.9989C89.1966 63.3227 87.8207 62.6259 87.2831 61.0019C86.9514 60.0254 86.703 59.0229 86.5406 58.0048C86.1552 55.4651 85.9299 52.9038 85.8658 50.336C85.7511 45.7879 85.7135 41.238 85.8075 36.688C85.8184 35.4904 86.0569 34.3056 86.5105 33.1964C87.2774 31.3588 89.5988 29.9277 91.5857 30.1076C93.2135 30.2555 94.7323 30.7332 96.0311 31.7466C98.4371 33.6198 99.6025 36.0549 99.2642 39.1363C99.1833 39.8687 99.1401 40.603 99.0536 41.3373C98.8093 43.409 98.5988 45.4845 98.3957 47.5618C98.2078 49.5493 97.9841 51.5386 98.2078 53.5391C98.3243 54.6218 98.7379 55.5996 99.8187 55.9743C101.642 56.6186 103.533 56.8266 105.446 56.3489C107.625 55.8094 109.172 53.9756 109.174 51.7428C109.174 49.7815 108.322 48.1837 106.7 47.0224C106.046 46.5559 105.311 46.2113 104.683 45.7111C103.604 44.8345 102.821 43.8211 103.024 42.3282C103.144 41.639 103.393 40.9783 103.757 40.3801C104.834 38.432 106.413 36.9035 107.999 35.3881C109.029 34.4046 110.067 33.4362 110.768 32.1737C112.179 29.6355 111.708 27.236 109.251 25.6082C107.856 24.6847 106.289 24.297 104.649 24.0179C102.161 23.6039 99.689 23.78 97.2304 24.1303C95.161 24.432 93.1238 24.9217 91.1439 25.5932C89.5971 26.1102 88.0952 26.7524 86.6534 27.5132C84.6253 28.5924 82.7217 29.8895 80.9767 31.3813C79.7266 32.4379 78.5701 33.5998 77.52 34.8542C76.3065 36.3067 75.2192 37.8596 74.27 39.4959C73.2426 41.2797 72.4228 43.1745 71.8264 45.1436C71.2338 47.1182 70.8643 49.1526 70.7249 51.2089C70.5379 53.8672 70.6952 56.5385 71.193 59.1568C71.5146 60.7053 71.9218 62.2349 72.4129 63.7386C73.1944 66.3131 74.3664 68.7534 75.8884 70.9747C77.4486 73.2543 79.4805 75.1125 81.7737 76.671C85.0331 78.8851 88.5988 80.3855 92.4127 81.3764C94.7942 82.0065 97.2285 82.4184 99.6852 82.6071C103.943 82.9401 108.226 82.7216 112.428 81.9571C114.968 81.4871 117.465 80.8105 119.894 79.9341C122.534 78.9718 125.081 77.7737 127.505 76.3544C131.014 74.3045 134.198 71.7465 136.954 68.7643C140.737 64.6902 143.324 59.9154 145.36 54.7979C146.55 51.8284 147.445 48.7498 148.033 45.6062C148.417 43.4841 148.668 41.3402 148.784 39.1869C148.929 36.7442 148.734 34.3147 148.427 31.8927Z" fill="#FDB912"/>
<path d="M20.2818 117.823C19.8458 118.667 19.2064 119.391 18.4209 119.928C17.5316 120.525 16.5404 120.954 15.4961 121.195C14.2573 121.487 12.9873 121.629 11.7142 121.616H0V97.0305H11.4322C13.9648 97.0305 15.9522 97.6044 17.3946 98.752C18.8369 99.8996 19.5581 101.444 19.5581 103.386V103.457C19.5682 104.088 19.4794 104.716 19.2949 105.319C19.1301 105.833 18.8948 106.322 18.5957 106.771C18.3102 107.195 17.9681 107.579 17.5788 107.912C17.197 108.237 16.7803 108.52 16.3363 108.755C17.7636 109.292 18.8864 110.023 19.7047 110.948C20.523 111.874 20.9321 113.155 20.9321 114.794V114.865C20.9571 115.889 20.734 116.903 20.2818 117.823V117.823ZM14.201 104.3C14.201 103.482 13.8959 102.858 13.2856 102.427C12.6753 101.996 11.7944 101.78 10.6428 101.777H5.28567V106.975H10.2894C11.4886 106.975 12.4404 106.77 13.1446 106.361C13.8489 105.951 14.201 105.289 14.201 104.375V104.3ZM15.575 114.133C15.588 113.755 15.508 113.38 15.3422 113.041C15.1765 112.701 14.9299 112.407 14.6239 112.185C13.9911 111.705 12.9692 111.465 11.5582 111.463H5.28567V116.871H11.7349C12.9328 116.871 13.8727 116.655 14.5544 116.223C15.2361 115.791 15.5763 115.118 15.575 114.204V114.133Z" fill="#FDB912"/>
<path d="M25.6896 121.612V97.0305H31.1163V121.612H25.6896Z" fill="#FDB912"/>
<path d="M37.2835 121.612V97.0305H55.8548V101.843H42.6387V106.829H54.2683V111.641H42.6387V116.804H56.0296V121.614L37.2835 121.612Z" fill="#FDB912"/>
<path d="M78.1948 121.612L66.2494 105.986V121.612H60.9017V97.0305H65.9073L77.4655 112.166V97.0305H82.8207V121.612H78.1948Z" fill="#FDB912"/>
<path d="M101.383 121.788H96.5913L86.6177 97.0305H92.6082L99.0593 114.344L105.507 97.0305H111.356L101.383 121.788Z" fill="#FDB912"/>
<path d="M115.163 121.612V97.0305H133.732V101.843H120.518V106.829H132.142V111.641H120.518V116.804H133.909V121.614L115.163 121.612Z" fill="#FDB912"/>
<path d="M156.074 121.612L144.128 105.986V121.612H138.771V97.0305H143.775L155.335 112.166V97.0305H160.69V121.612H156.074Z" fill="#FDB912"/>
<path d="M186.961 115.783C186.508 117.083 185.768 118.265 184.795 119.243C183.829 120.183 182.659 120.892 181.376 121.314C179.933 121.788 178.42 122.02 176.901 122C173.589 122 170.981 121.087 169.077 119.26C167.174 117.433 166.223 114.706 166.224 111.079V97.0305H171.651V110.937C171.651 112.951 172.121 114.467 173.06 115.485C174 116.503 175.304 117.012 176.972 117.012C178.64 117.012 179.944 116.52 180.884 115.538C181.824 114.555 182.293 113.08 182.292 111.113V97.0305H187.72V110.892C187.72 112.771 187.467 114.402 186.961 115.783Z" fill="#FDB912"/>
<path d="M193.252 121.612V97.0305H211.823V101.843H198.607V106.829H210.237V111.641H198.607V116.804H212V121.614L193.252 121.612Z" fill="#FDB912"/>
</g>
<defs>
<clipPath id="clip0_2_617">
<rect width="212" height="122" fill="white"/>
</clipPath>
</defs>
</svg>
