<svg width="41" height="37" viewBox="0 0 41 37" fill="none" xmlns="http://www.w3.org/2000/svg">
<path d="M38.95 0C39.4937 0 40.0151 0.216567 40.3996 0.602058C40.784 0.98755 41 1.51039 41 2.05556V34.9444C41 35.4896 40.784 36.0125 40.3996 36.3979C40.0151 36.7834 39.4937 37 38.95 37H2.05C1.50631 37 0.984881 36.7834 0.600431 36.3979C0.215981 36.0125 0 35.4896 0 34.9444V2.05556C0 1.51039 0.215981 0.98755 0.600431 0.602058C0.984881 0.216567 1.50631 0 2.05 0H38.95ZM36.9 4.11111H4.1V32.8889H36.9V4.11111ZM15.1679 10.2778L21.7259 26.7222H17.3081L16.4881 24.6667H9.74365L8.92365 26.7222H4.50795L11.068 10.2778H15.1679ZM34.85 10.2778V26.7222H28.7C27.0689 26.7222 25.5046 26.0725 24.3513 24.916C23.1979 23.7596 22.55 22.1911 22.55 20.5556C22.55 18.9201 23.1979 17.3515 24.3513 16.1951C25.5046 15.0386 27.0689 14.3889 28.7 14.3889H30.7479L30.75 10.2778H34.85ZM30.75 18.5H28.7C28.1775 18.5006 27.6749 18.7012 27.295 19.0609C26.9151 19.4205 26.6864 19.9121 26.6558 20.4351C26.6252 20.9581 26.7949 21.4731 27.1302 21.8749C27.4656 22.2766 27.9413 22.5348 28.4601 22.5967L28.7 22.6111H30.75V18.5ZM13.118 16.2081L11.3816 20.5556H14.8502L13.118 16.2081Z" fill="#FDB912"/>
</svg>
