<svg width="17" height="22" viewBox="0 0 17 22" fill="none" xmlns="http://www.w3.org/2000/svg">
<path d="M16.1908 21.9939C16.0421 21.9939 15.8959 21.9359 15.7866 21.8267L14.8891 20.9301L13.9917 21.8267C13.7684 22.0498 13.4066 22.0498 13.1833 21.8267L12.2859 20.9301L11.3884 21.8267C11.1652 22.0498 10.8033 22.0498 10.58 21.8267L9.68257 20.9301L8.78515 21.8267C8.67799 21.9338 8.53258 21.9939 8.38092 21.9939C8.22927 21.9939 8.08386 21.9338 7.9767 21.8267L7.07928 20.9301L6.18186 21.8267C5.95859 22.0498 5.59669 22.0498 5.37342 21.8267L4.47627 20.9298L3.57884 21.8264C3.47168 21.9335 3.32627 21.9937 3.17462 21.9937C3.02297 21.9937 2.87756 21.9335 2.7704 21.8264L1.87298 20.9298L0.975826 21.8267C0.812239 21.9901 0.566722 22.0389 0.352947 21.9506C0.139171 21.8619 0 21.6538 0 21.4229V0.571077C0 0.255589 0.255825 0 0.571606 0H16.1905C16.5063 0 16.7621 0.255589 16.7621 0.571077V21.4229C16.7621 21.6538 16.623 21.8619 16.4092 21.9506C16.3386 21.9796 16.2643 21.9939 16.1908 21.9939ZM4.47627 19.5513C4.62249 19.5513 4.76871 19.6072 4.88049 19.7186L5.77791 20.6152L6.67533 19.7186C6.8986 19.4955 7.2605 19.4955 7.48377 19.7186L8.3812 20.6152L9.27862 19.7186C9.50189 19.4955 9.86379 19.4955 10.0871 19.7186L10.9845 20.6152L11.8819 19.7186C12.1052 19.4955 12.4671 19.4955 12.6903 19.7186L13.5878 20.6152L14.4852 19.7186C14.5924 19.6115 14.7378 19.5513 14.8894 19.5513C15.0411 19.5513 15.1865 19.6115 15.2936 19.7186L15.6195 20.0441V1.14215H1.14321V20.0444L1.46903 19.7188C1.6923 19.4958 2.0542 19.4958 2.27747 19.7188L3.17489 20.6154L4.07232 19.7188C4.18382 19.6072 4.33004 19.5513 4.47627 19.5513Z" fill="#525252"/>
<path d="M13.2613 4.19651H3.46235C3.14657 4.19651 2.89075 3.94092 2.89075 3.62543C2.89075 3.30994 3.14657 3.05435 3.46235 3.05435H13.261C13.5768 3.05435 13.8326 3.30994 13.8326 3.62543C13.8329 3.94092 13.5768 4.19651 13.2613 4.19651Z" fill="#525252"/>
<path d="M8.38136 6.75943H3.46235C3.14657 6.75943 2.89075 6.50385 2.89075 6.18836C2.89075 5.87287 3.14657 5.61728 3.46235 5.61728H8.38109C8.69687 5.61728 8.95269 5.87287 8.95269 6.18836C8.95297 6.50385 8.69687 6.75943 8.38136 6.75943Z" fill="#525252"/>
<path d="M13.2613 9.13752H3.46235C3.14657 9.13752 2.89075 8.88193 2.89075 8.56644C2.89075 8.25095 3.14657 7.99536 3.46235 7.99536H13.261C13.5768 7.99536 13.8326 8.25095 13.8326 8.56644C13.8329 8.88193 13.5768 9.13752 13.2613 9.13752Z" fill="#525252"/>
<path d="M8.38136 11.7004H3.46235C3.14657 11.7004 2.89075 11.4449 2.89075 11.1294C2.89075 10.8139 3.14657 10.5583 3.46235 10.5583H8.38109C8.69687 10.5583 8.95269 10.8139 8.95269 11.1294C8.95297 11.4446 8.69687 11.7004 8.38136 11.7004Z" fill="#525252"/>
<path d="M11.6909 11.7614C11.9015 11.7614 12.0688 11.9284 12.0688 12.1387V12.2404C12.4611 12.2984 12.81 12.4146 13.1223 12.5889C13.2603 12.6686 13.3838 12.8066 13.3838 13.0245C13.3838 13.3001 13.1659 13.5107 12.8898 13.5107C12.8027 13.5107 12.7153 13.489 12.6356 13.4454C12.4321 13.3364 12.2289 13.2494 12.0328 13.1988V14.3019C13.1369 14.5995 13.6092 15.0494 13.6092 15.8623C13.6092 16.6751 12.9844 17.1977 12.0691 17.2993V17.6839C12.0691 17.8942 11.902 18.0612 11.6912 18.0612C11.4804 18.0612 11.3136 17.8942 11.3136 17.6839V17.292C10.7978 17.2267 10.3109 17.0453 9.88252 16.7838C9.73006 16.6895 9.63538 16.5445 9.63538 16.3482C9.63538 16.0653 9.85349 15.8547 10.1367 15.8547C10.2311 15.8547 10.3329 15.891 10.4199 15.9493C10.7251 16.1452 11.0157 16.2832 11.3499 16.3555V15.2015C10.3038 14.9185 9.78811 14.5193 9.78811 13.6555C9.78811 12.8573 10.3982 12.3201 11.3136 12.2257V12.1385C11.313 11.9284 11.4801 11.7614 11.6909 11.7614ZM11.3494 14.1132V13.1334C11.0008 13.1841 10.848 13.3584 10.848 13.5907C10.848 13.8156 10.9498 13.968 11.3494 14.1132ZM12.0322 15.3833V16.3921C12.3735 16.3414 12.5479 16.1818 12.5479 15.9205C12.5479 15.6809 12.4245 15.5213 12.0322 15.3833Z" fill="#525252"/>
</svg>
