<svg width="60" height="57" viewBox="0 0 60 57" fill="none" xmlns="http://www.w3.org/2000/svg">
<g clip-path="url(#clip0_6_1069)">
<path d="M59.4849 44.7032C58.3301 43.5796 56.5482 44.317 55.2735 44.8165C53.3433 45.6014 51.7267 46.9265 50.0399 48.109C46.8498 49.9313 43.0109 49.3163 39.5026 49.7354C36.5433 49.8996 33.4052 48.8361 31.5713 46.4157C33.8581 45.9242 37.6098 46.1982 39.5796 47.0262C41.6388 47.4792 44.1871 46.8393 45.292 44.9173C46.0901 43.2908 44.5335 41.3654 42.9147 41.1162C38.6875 39.9553 34.0845 40.1274 30.1222 38.0196C25.8079 36.0534 21.1052 33.8154 16.2611 34.8778C10.0199 36.8995 5.88787 40.0425 1.26334 44.7179C0.388245 45.5402 -0.260435 46.0759 0.102962 46.6638L6.24108 54.9658C6.98485 55.8243 8.91843 54.0167 9.98372 53.2669C14.1588 50.1454 18.6339 50.8499 21.9498 52.9803C25.8181 54.9058 31.8418 57.2073 33.5116 56.9841C38.452 56.1777 45.3169 57.0668 49.0347 54.9794C52.7524 52.892 62.3128 48.2766 59.4849 44.7009V44.7032Z" fill="#FDB912"/>
<path d="M32.2573 0C28.3403 0.0521003 26.2233 1.81218 25.2079 3.56774C24.5925 4.64931 24.2494 5.86445 24.2083 7.10829C24.2083 7.12302 24.1652 10.1664 24.1652 10.1664C24.1114 10.1877 24.0591 10.2131 24.009 10.2422C23.8032 10.3948 23.6459 10.6037 23.5562 10.8437C23.3784 11.2967 23.3569 11.7871 23.3569 12.418C23.3569 14.4114 24.5049 16.3063 25.6449 17.4185C26.5369 20.7155 29.1203 23.1948 32.255 23.2843C35.3898 23.1914 37.9675 20.7155 38.8607 17.4185C39.9996 16.3063 41.1475 14.4114 41.1475 12.418C41.1475 11.7871 41.126 11.2922 40.9483 10.8437C40.8585 10.6037 40.7012 10.3948 40.4954 10.2422C40.4455 10.2127 40.3933 10.1873 40.3392 10.1664C40.3392 10.1664 40.5283 8.57956 40.3018 7.13548C40.0754 5.69139 39.703 4.72414 38.9252 4.11026C38.6569 2.32866 37.8305 1.51997 36.3588 0.867583C35.0619 0.311737 33.6682 0.0169307 32.2573 0Z" fill="#FDB912"/>
<path d="M25.6902 21.4121C25.1638 21.6194 19.4083 23.8891 17.8075 24.9844C16.1298 26.1328 15.0985 27.4263 14.2064 29.4016C13.5104 30.9371 13.0523 32.5699 12.8479 34.2435C14.6411 33.4801 16.5181 32.9546 18.5004 32.8606C22.2362 32.7734 25.8034 34.1404 29.1521 35.6627C32.4045 37.5881 36.1619 38.1012 39.8558 38.7207C43.9007 38.39 48.3555 37.7138 51.3713 36.3422C51.4842 36.2887 51.5799 36.2047 51.6475 36.0996C51.7151 35.9945 51.752 35.8726 51.7539 35.7476C51.7539 33.6602 51.1981 31.3723 50.3049 29.405C49.4117 27.4376 48.3804 26.1396 46.7038 24.9878C45.103 23.8925 39.3453 21.6228 38.82 21.4155C37.6381 25.9822 36.4675 33.8743 32.2539 33.8743C28.0404 33.8743 26.8732 25.9856 25.6879 21.4155L25.6902 21.4121Z" fill="#EF3A49"/>
</g>
<defs>
<clipPath id="clip0_6_1069">
<rect width="60" height="57" fill="white"/>
</clipPath>
</defs>
</svg>
