<svg width="20" height="20" viewBox="0 0 20 20" fill="none" xmlns="http://www.w3.org/2000/svg">
<path fill-rule="evenodd" clip-rule="evenodd" d="M3.33333 1.33333C2.8029 1.33333 2.29419 1.54405 1.91912 1.91912C1.54405 2.29419 1.33333 2.8029 1.33333 3.33333V6.66667H0V3.33333C0 2.44928 0.351189 1.60143 0.976311 0.976311C1.60143 0.351189 2.44928 0 3.33333 0L6.66667 0V1.33333H3.33333ZM16.6667 1.33333H13.3333V0H16.6667C17.5507 0 18.3986 0.351189 19.0237 0.976311C19.6488 1.60143 20 2.44928 20 3.33333V6.66667H18.6667V3.33333C18.6667 2.8029 18.456 2.29419 18.0809 1.91912C17.7058 1.54405 17.1971 1.33333 16.6667 1.33333ZM6.66667 8H5.33333V6.66667H6.66667V8ZM14.6667 8H13.3333V6.66667H14.6667V8ZM6.53333 11.6C6.93697 12.1382 7.46037 12.575 8.06207 12.8759C8.66378 13.1767 9.32727 13.3333 10 13.3333C10.6727 13.3333 11.3362 13.1767 11.9379 12.8759C12.5396 12.575 13.063 12.1382 13.4667 11.6L14.5333 12.4C12.2667 15.4227 7.73333 15.4227 5.46667 12.4L6.53333 11.6ZM0 16.6667V13.3333H1.33333V16.6667C1.33333 17.1971 1.54405 17.7058 1.91912 18.0809C2.29419 18.456 2.8029 18.6667 3.33333 18.6667H6.66667V20H3.33333C2.44928 20 1.60143 19.6488 0.976311 19.0237C0.351189 18.3986 0 17.5507 0 16.6667H0ZM20 13.3333V16.6667C20 17.5507 19.6488 18.3986 19.0237 19.0237C18.3986 19.6488 17.5507 20 16.6667 20H13.3333V18.6667H16.6667C17.1971 18.6667 17.7058 18.456 18.0809 18.0809C18.456 17.7058 18.6667 17.1971 18.6667 16.6667V13.3333H20Z" fill="#737373"/>
</svg>
