<svg width="22" height="28" viewBox="0 0 22 28" fill="none" xmlns="http://www.w3.org/2000/svg">
<path d="M18.047 23.09C18.0185 23.0677 17.9858 23.0511 17.9508 23.0412C17.9157 23.0313 17.879 23.0283 17.8428 23.0323C17.8065 23.0364 17.7714 23.0474 17.7396 23.0648C17.7077 23.0822 17.6796 23.1055 17.657 23.1336C16.8419 24.1442 15.8612 25.015 14.7548 25.7103C14.7241 25.7295 14.6975 25.7544 14.6766 25.7837C14.6557 25.813 14.6409 25.846 14.633 25.8809C14.6251 25.9158 14.6244 25.9519 14.6307 25.987C14.637 26.0222 14.6504 26.0558 14.67 26.086C14.6896 26.1161 14.715 26.1422 14.7449 26.1626C14.7748 26.1831 14.8084 26.1977 14.844 26.2054C14.8796 26.2131 14.9164 26.2139 14.9523 26.2077C14.9882 26.2014 15.0225 26.1884 15.0532 26.1692C16.2112 25.4417 17.2377 24.5305 18.0907 23.4728C18.1136 23.4449 18.1306 23.4128 18.1408 23.3784C18.151 23.3441 18.1542 23.3081 18.1501 23.2725C18.1461 23.2369 18.1349 23.2025 18.1172 23.1711C18.0995 23.1398 18.0756 23.1122 18.047 23.09Z" fill="#808080"/>
<path d="M19.0539 22.2051C18.55 22.0964 18.0559 21.9474 17.5767 21.7596C17.5185 21.7368 17.454 21.734 17.394 21.7517C17.3339 21.7694 17.2817 21.8066 17.246 21.8571C16.0192 23.5944 14.4023 24.8781 12.4399 25.6728C11.2023 26.1752 9.87849 26.4421 8.53912 26.4594C8.46567 26.4598 8.39541 26.4889 8.3438 26.5401C8.29219 26.5914 8.26346 26.6606 8.26392 26.7326C8.26439 26.8046 8.29401 26.8735 8.34628 26.9241C8.39855 26.9747 8.46918 27.0029 8.54263 27.0024H8.54653C9.95556 26.9843 11.3482 26.7035 12.6501 26.1749C14.6461 25.3665 16.3016 24.0774 17.574 22.3416C18.0169 22.5049 18.471 22.6371 18.933 22.7374C18.9685 22.7451 19.0053 22.7459 19.0411 22.7397C19.0769 22.7335 19.1112 22.7204 19.1418 22.7012C19.1725 22.6821 19.199 22.6571 19.2199 22.6279C19.2408 22.5987 19.2555 22.5657 19.2634 22.5309C19.2713 22.4961 19.2721 22.4601 19.2657 22.4249C19.2594 22.3898 19.2461 22.3563 19.2265 22.3262C19.207 22.2961 19.1815 22.2701 19.1517 22.2496C19.1219 22.2292 19.0883 22.2147 19.0528 22.207L19.0539 22.2051Z" fill="#808080"/>
<path d="M19.6416 21.2135C18.785 21.0621 17.9571 20.7827 17.1869 20.3852C17.1236 20.3527 17.0499 20.3453 16.9812 20.3647C16.9126 20.3841 16.8542 20.4287 16.8182 20.4892C15.6628 22.4395 14.0487 23.8449 12.0176 24.667C9.66663 25.6189 7.01686 25.6131 4.61908 24.6261C4.4689 24.5646 4.32496 24.5011 4.18999 24.4372C4.12399 24.4056 4.04787 24.4009 3.97837 24.4243C3.90888 24.4477 3.8517 24.4972 3.81942 24.5619C3.78715 24.6266 3.78241 24.7012 3.80626 24.7693C3.83011 24.8375 3.88058 24.8935 3.94659 24.9252C4.08936 24.9936 4.24304 25.0617 4.40336 25.1271C6.87799 26.1458 9.68301 26.1978 12.2271 25.1692C14.2945 24.3317 15.9534 22.924 17.1615 20.9829C17.9148 21.3444 18.7156 21.6018 19.5409 21.7477C19.6134 21.7605 19.688 21.7446 19.7484 21.7034C19.8088 21.6622 19.8501 21.5992 19.8631 21.5282C19.8762 21.4572 19.8599 21.3841 19.8179 21.3248C19.7759 21.2656 19.7117 21.2251 19.6392 21.2124L19.6416 21.2135Z" fill="#808080"/>
<path d="M7.07939 0.720204C7.68459 0.916116 8.27287 1.15908 8.83862 1.44678C8.87801 1.46688 8.92177 1.47738 8.96618 1.47737C9.00116 1.47729 9.03582 1.4708 9.06837 1.45825C10.3965 0.94204 11.7989 0.633252 13.2246 0.543149C13.298 0.538737 13.3666 0.50592 13.4153 0.451918C13.4641 0.397916 13.4889 0.327153 13.4844 0.255194C13.4799 0.183236 13.4464 0.115978 13.3913 0.0682149C13.3363 0.0204523 13.2641 -0.0039019 13.1907 0.00050992C11.7487 0.0918202 10.3295 0.398212 8.98178 0.909114C8.42452 0.632022 7.8469 0.396182 7.25375 0.203569C7.18478 0.183759 7.11065 0.190975 7.04699 0.223696C6.98333 0.256417 6.93512 0.312087 6.91251 0.378975C6.88991 0.445862 6.89467 0.518742 6.9258 0.582254C6.95693 0.645766 7.01199 0.69495 7.07939 0.719439V0.720204Z" fill="#808080"/>
<path d="M20.0988 20.1841C18.9024 20.012 17.766 19.5593 16.7863 18.8644C16.7522 18.8412 16.7132 18.8257 16.6723 18.8191C16.6313 18.8125 16.5894 18.8149 16.5495 18.8261C16.5092 18.8374 16.4719 18.8573 16.4402 18.8843C16.4086 18.9113 16.3835 18.9449 16.3666 18.9825L16.3588 18.9993C15.3083 21.2395 13.7063 22.8089 11.5944 23.6647C9.54651 24.4927 7.20685 24.5137 5.04857 23.6265C3.63807 23.0452 2.33522 22.0426 1.38188 20.8028C1.33786 20.745 1.27222 20.7067 1.1994 20.6963C1.12657 20.686 1.05253 20.7044 0.993565 20.7475C0.934596 20.7907 0.895529 20.855 0.884959 20.9264C0.874388 20.9978 0.89318 21.0704 0.937199 21.1282C1.95139 22.4433 3.33381 23.5076 4.83325 24.1255C7.08749 25.0525 9.58045 25.0644 11.805 24.1638C13.9657 23.2892 15.6227 21.7183 16.7352 19.49C17.7245 20.132 18.8458 20.5525 20.0196 20.7217C20.0556 20.7269 20.0923 20.725 20.1276 20.7163C20.1629 20.7075 20.196 20.692 20.2252 20.6707C20.2544 20.6494 20.279 20.6226 20.2976 20.592C20.3163 20.5613 20.3286 20.5274 20.3338 20.4921C20.3391 20.4568 20.3372 20.4208 20.3282 20.3862C20.3193 20.3516 20.3035 20.3191 20.2818 20.2905C20.26 20.2619 20.2327 20.2378 20.2015 20.2195C20.1702 20.2012 20.1356 20.1892 20.0996 20.1841H20.0988Z" fill="#808080"/>
<path d="M5.50121 1.43376C6.64941 1.65934 7.75175 2.06919 8.76379 2.64676C8.80158 2.66821 8.84403 2.68054 8.88764 2.68273C8.93125 2.68493 8.97477 2.67692 9.0146 2.65938L9.07155 2.63529C10.6698 1.95009 12.3958 1.59747 14.1402 1.59973C14.7273 1.5999 15.3138 1.639 15.8955 1.71674C15.9315 1.72157 15.9682 1.71938 16.0034 1.71031C16.0385 1.70125 16.0716 1.68548 16.1005 1.66391C16.1295 1.64233 16.1538 1.61538 16.1721 1.58459C16.1905 1.55379 16.2024 1.51976 16.2074 1.48443C16.2123 1.4491 16.2101 1.41317 16.2008 1.37868C16.1916 1.3442 16.1755 1.31184 16.1535 1.28345C16.1315 1.25506 16.104 1.2312 16.0726 1.21322C16.0411 1.19525 16.0064 1.18352 15.9704 1.17869C15.3641 1.0976 14.7529 1.05684 14.141 1.05671C12.3455 1.05437 10.5685 1.41225 8.91943 2.10833C7.88747 1.53604 6.76919 1.12839 5.60653 0.900683C5.5348 0.887896 5.46083 0.903351 5.40065 0.943695C5.34047 0.984039 5.29895 1.04602 5.28508 1.11618C5.27122 1.18635 5.28614 1.25905 5.3266 1.3185C5.36706 1.37795 5.4298 1.41937 5.50121 1.43376Z" fill="#808080"/>
<path d="M20.4323 19.1317C18.8684 18.9533 17.4277 18.2119 16.3896 17.0514C16.3575 17.0156 16.3163 16.9887 16.2702 16.9735C16.2241 16.9582 16.1747 16.9551 16.127 16.9645C16.0793 16.9739 16.0349 16.9954 15.9984 17.0269C15.9618 17.0584 15.9344 17.0987 15.9188 17.1439C15.7548 17.6201 15.5657 18.0876 15.3524 18.5447C14.4225 20.5278 13.0159 21.9118 11.1708 22.6582C9.39014 23.381 7.34811 23.394 5.47848 22.6231C3.60886 21.8521 2.03179 20.2881 1.27193 18.4414C0.994586 17.7694 0.810898 17.0637 0.725828 16.3435C0.71546 16.2736 0.677717 16.2104 0.620609 16.1674C0.563501 16.1243 0.491523 16.1048 0.419953 16.1129C0.348382 16.121 0.282853 16.1561 0.237273 16.2108C0.191693 16.2655 0.169651 16.3355 0.175824 16.4059C0.266489 17.1743 0.462379 17.9273 0.758204 18.6445C1.5719 20.6227 3.25662 22.2969 5.26394 23.1236C7.2424 23.9397 9.43773 23.9493 11.3822 23.1619C13.3607 22.3615 14.8656 20.885 15.856 18.773C16.012 18.4349 16.1595 18.09 16.2909 17.7428C17.39 18.8171 18.8263 19.497 20.368 19.6728C20.441 19.6811 20.5144 19.6607 20.572 19.6161C20.6296 19.5714 20.6668 19.5061 20.6754 19.4345C20.6839 19.363 20.6631 19.291 20.6175 19.2345C20.5719 19.178 20.5053 19.1416 20.4323 19.1332V19.1317Z" fill="#808080"/>
<path d="M4.1358 2.35196C5.70819 2.45215 7.28214 2.97911 8.68679 3.8751C8.73161 3.90397 8.78412 3.91927 8.83775 3.91907C8.88258 3.91909 8.92674 3.90846 8.96647 3.8881C9.1463 3.79594 9.33041 3.70951 9.51258 3.6315C10.9717 3.00572 12.5474 2.68382 14.14 2.68619C15.3748 2.68748 16.6021 2.87515 17.7786 3.24259C17.8135 3.25426 17.8504 3.25898 17.8872 3.25648C17.924 3.25398 17.9599 3.24431 17.9928 3.22804C18.0257 3.21176 18.0549 3.18921 18.0789 3.16171C18.1028 3.1342 18.1208 3.1023 18.132 3.06786C18.1431 3.03342 18.1472 2.99714 18.1439 2.96115C18.1405 2.92517 18.1299 2.89019 18.1126 2.85828C18.0954 2.82636 18.0717 2.79815 18.0432 2.7753C18.0146 2.75245 17.9817 2.73541 17.9464 2.72519C16.7157 2.34012 15.4318 2.14342 14.14 2.14202C12.4721 2.13989 10.8219 2.47714 9.29374 3.13246C9.14708 3.19479 8.99963 3.26248 8.85374 3.33399C7.40423 2.43877 5.78893 1.91219 4.17286 1.80932C4.13651 1.80694 4.10005 1.81159 4.06554 1.82302C4.03103 1.83446 3.99915 1.85244 3.97173 1.87595C3.94431 1.89945 3.92189 1.92803 3.90573 1.96003C3.88957 1.99204 3.88001 2.02685 3.87757 2.06248C3.87514 2.09811 3.87989 2.13386 3.89155 2.16769C3.90321 2.20152 3.92155 2.23277 3.94553 2.25965C3.96951 2.28653 3.99866 2.30852 4.0313 2.32436C4.06395 2.3402 4.09946 2.34958 4.1358 2.35196Z" fill="#808080"/>
<path d="M20.6465 18.0621C19.6404 17.9625 18.6848 17.5807 17.8943 16.9624C17.1038 16.3442 16.5118 15.5156 16.1892 14.5761C16.1376 14.4268 16.0689 14.2837 15.9844 14.1497C15.9545 14.1019 15.9103 14.0643 15.8578 14.0422C15.8053 14.02 15.747 14.0143 15.6911 14.0259C15.6351 14.0374 15.5842 14.0657 15.5453 14.1067C15.5064 14.1478 15.4814 14.1997 15.4738 14.2552C15.293 15.5811 14.9126 16.8733 14.3449 18.0896C13.5367 19.8166 12.3274 21.0154 10.7488 21.6545C9.18227 22.2881 7.45151 22.2567 5.9076 21.6216C4.3005 20.9592 2.95162 19.6185 2.29942 18.0353C1.91303 17.0944 1.73794 16.0829 1.78608 15.0697C1.78796 15.0261 1.77905 14.9826 1.7601 14.943C1.74116 14.9034 1.71275 14.8689 1.67729 14.8424C1.64183 14.8159 1.60036 14.7982 1.55641 14.7908C1.51247 14.7833 1.46734 14.7864 1.42487 14.7998C1.04501 14.9198 0.652382 14.9968 0.254653 15.0292C0.218385 15.0321 0.183053 15.042 0.150674 15.0582C0.118294 15.0745 0.0895013 15.0969 0.065939 15.1241C0.018353 15.179 -0.00503863 15.2501 0.000909972 15.3219C0.00685857 15.3938 0.0416602 15.4603 0.0976588 15.507C0.153657 15.5536 0.226266 15.5765 0.299511 15.5707C0.611144 15.5455 0.920183 15.4957 1.2236 15.4216C1.22532 16.3876 1.41572 17.3444 1.78452 18.2403C2.49095 19.9554 3.95138 21.407 5.6915 22.1241C7.39534 22.8262 9.28018 22.838 10.9575 22.1585C12.6687 21.4655 13.9771 20.1738 14.8457 18.3195C15.3035 17.3393 15.6439 16.3103 15.8599 15.2533C16.2767 16.1706 16.9333 16.9637 17.7633 17.5522C18.5934 18.1407 19.5673 18.5037 20.5865 18.6044C20.6595 18.6116 20.7326 18.5901 20.7895 18.5446C20.8464 18.499 20.8825 18.4332 20.8899 18.3615C20.8973 18.2899 20.8754 18.2183 20.8289 18.1625C20.7825 18.1067 20.7153 18.0713 20.6422 18.064L20.6465 18.0621Z" fill="#808080"/>
<path d="M2.98317 3.44443C3.12282 3.43258 3.27299 3.42455 3.42863 3.42149C3.48324 3.42149 3.53707 3.42149 3.58934 3.42149C5.32673 3.42149 7.11132 4.03678 8.61466 5.15418C8.65996 5.188 8.71481 5.20729 8.7717 5.20941C8.8286 5.21153 8.88478 5.19639 8.93257 5.16604C9.2586 4.95992 9.60102 4.77986 9.95651 4.62761C11.2757 4.06215 12.7002 3.771 14.1401 3.77254C15.6719 3.77254 17.1873 4.09338 18.6438 4.72589C18.8026 4.79472 18.9473 4.86164 19.0854 4.92971C19.1179 4.94575 19.1533 4.95537 19.1896 4.958C19.2259 4.96063 19.2624 4.95622 19.2969 4.94504C19.3315 4.93385 19.3634 4.9161 19.391 4.8928C19.4186 4.86951 19.4412 4.84111 19.4575 4.80925C19.4739 4.77739 19.4837 4.74267 19.4864 4.7071C19.4891 4.67152 19.4846 4.63577 19.4732 4.60189C19.4618 4.56802 19.4437 4.53668 19.4199 4.50966C19.3961 4.48264 19.3672 4.46048 19.3347 4.44443C19.188 4.37216 19.0351 4.30179 18.8666 4.22914C17.3394 3.56566 15.7487 3.22914 14.1389 3.22914C12.6231 3.22791 11.1236 3.53482 9.73495 4.13047C9.41099 4.26924 9.09703 4.42945 8.79527 4.61002C7.22873 3.4907 5.38758 2.87732 3.58973 2.87732C3.53395 2.87732 3.47661 2.87732 3.41771 2.87732C3.24959 2.88076 3.08693 2.88917 2.9348 2.90218C2.89856 2.90531 2.8633 2.91542 2.83104 2.93192C2.79879 2.94841 2.77016 2.97098 2.7468 2.99832C2.72343 3.02566 2.70579 3.05725 2.69488 3.09127C2.68397 3.1253 2.68 3.1611 2.6832 3.19663C2.68641 3.23216 2.69671 3.26672 2.71354 3.29835C2.73037 3.32997 2.75338 3.35804 2.78127 3.38094C2.80917 3.40385 2.84138 3.42114 2.87609 3.43184C2.9108 3.44253 2.94732 3.44642 2.98356 3.44328L2.98317 3.44443Z" fill="#808080"/>
<path d="M20.746 16.9794C19.9545 16.8976 19.2036 16.595 18.5821 16.1076C17.9606 15.6201 17.4948 14.9682 17.2397 14.2292C16.935 13.3454 16.2005 12.5771 15.2749 12.1745C15.1349 12.1134 14.9906 12.0623 14.8431 12.0215C14.8017 12.0102 14.7582 12.0086 14.7161 12.0166C14.674 12.0246 14.6343 12.0421 14.6003 12.0678C14.5662 12.0934 14.5387 12.1264 14.5199 12.1642C14.5011 12.2021 14.4916 12.2437 14.492 12.2857C14.5128 14.1317 14.1189 15.9595 13.3382 17.6395C12.6505 19.1079 11.6367 20.1221 10.326 20.6532C9.06607 21.1638 7.63918 21.1588 6.33789 20.6223C4.99409 20.0666 3.8699 18.9488 3.3277 17.6295C2.73751 16.1978 2.74258 14.6142 3.34447 12.9232C3.36549 12.8643 3.36517 12.8001 3.34358 12.7414C3.32198 12.6827 3.28043 12.6331 3.2259 12.6009C3.17137 12.5688 3.1072 12.556 3.04418 12.5647C2.98116 12.5735 2.92315 12.6033 2.87989 12.649C2.1915 13.377 1.25675 13.835 0.249625 13.9378C0.213434 13.9414 0.178339 13.9521 0.146344 13.9691C0.11435 13.9861 0.0860809 14.0091 0.0631526 14.0368C0.0402243 14.0645 0.0230853 14.0963 0.0127142 14.1305C0.00234309 14.1647 -0.001057 14.2006 0.00270805 14.236C0.00647311 14.2715 0.0173296 14.3059 0.0346576 14.3373C0.0519856 14.3687 0.0754457 14.3964 0.103699 14.4188C0.131952 14.4413 0.164444 14.4581 0.19932 14.4683C0.234197 14.4785 0.270775 14.4818 0.306965 14.4781C1.11484 14.3958 1.88744 14.1108 2.55028 13.6506C2.1918 15.1335 2.27957 16.5366 2.81397 17.8326C3.41039 19.2857 4.64731 20.5133 6.12296 21.1213C7.56623 21.7167 9.14759 21.7163 10.537 21.1534C11.9803 20.568 13.0932 19.4613 13.841 17.8647C14.6008 16.2319 15.0102 14.4634 15.0436 12.6689L15.0498 12.6716C15.8366 13.0139 16.4587 13.6617 16.7146 14.4039C17.0041 15.2414 17.5322 15.98 18.2365 16.5323C18.9408 17.0846 19.7918 17.4276 20.6887 17.5205C20.7619 17.528 20.8351 17.5066 20.8922 17.4612C20.9494 17.4157 20.9857 17.3499 20.9933 17.2781C21.0009 17.2063 20.9792 17.1346 20.9328 17.0786C20.8864 17.0225 20.8192 16.9869 20.746 16.9794Z" fill="#808080"/>
<path d="M2.02943 4.69338C2.49619 4.57997 2.97437 4.51777 3.45515 4.50791C3.50039 4.50791 3.54447 4.50791 3.5905 4.50791C5.33686 4.50791 7.14563 5.24061 8.55302 6.51824C8.60274 6.56344 8.66766 6.58919 8.73546 6.5906C8.80325 6.59201 8.86922 6.56898 8.92086 6.52589C9.36576 6.15471 9.8642 5.85008 10.4 5.62187C11.5793 5.11616 12.8528 4.85574 14.14 4.85705C15.5166 4.85705 16.8803 5.14615 18.1933 5.71671C18.8007 5.98252 19.3819 6.30254 19.9295 6.67273C19.9595 6.69294 19.9932 6.70717 20.0288 6.71461C20.0644 6.72204 20.1011 6.72253 20.1369 6.71605C20.1726 6.70957 20.2067 6.69624 20.2373 6.67684C20.2678 6.65743 20.2941 6.63232 20.3147 6.60294C20.3353 6.57356 20.3498 6.54049 20.3574 6.50562C20.365 6.47074 20.3655 6.43474 20.3589 6.39967C20.3523 6.36461 20.3387 6.33116 20.3189 6.30124C20.2991 6.27133 20.2735 6.24553 20.2435 6.22531C19.6678 5.83645 19.0567 5.50055 18.418 5.22187C17.0336 4.62034 15.5942 4.31518 14.14 4.31518C12.7767 4.31346 11.4279 4.58913 10.1788 5.12474C9.66761 5.34185 9.18699 5.62255 8.74883 5.95992C7.26655 4.68879 5.40005 3.96375 3.58933 3.96375C3.54057 3.96375 3.49103 3.96375 3.44149 3.96375C2.91994 3.97446 2.40121 4.04192 1.89485 4.16489C1.82337 4.18239 1.7619 4.22701 1.72397 4.28893C1.68604 4.35086 1.67475 4.42502 1.6926 4.4951C1.71044 4.56518 1.75596 4.62545 1.81913 4.66263C1.88229 4.69982 1.95794 4.71088 2.02943 4.69338Z" fill="#808080"/>
<path d="M20.7611 15.8873C20.1989 15.8133 19.6691 15.5862 19.2321 15.2317C18.795 14.8772 18.4682 14.4095 18.2888 13.8819C17.8878 12.7148 16.929 11.7053 15.7237 11.1814C15.2262 10.9593 14.6866 10.8421 14.14 10.8372C13.9388 10.837 13.738 10.8549 13.5401 10.8907C13.4713 10.9033 13.4098 10.9409 13.3681 10.996C13.3265 11.0511 13.3076 11.1197 13.3154 11.1879C13.5404 13.2371 13.2007 15.308 12.3316 17.1848C11.7629 18.3963 10.9457 19.2253 9.90263 19.6479C8.87791 20.0609 7.76191 20.0303 6.76644 19.6192C5.67467 19.1597 4.80931 18.3001 4.35501 17.2238C3.81866 15.9198 3.90018 14.3076 4.5793 12.8005C4.75678 12.407 4.97757 11.9171 4.76615 11.3856C4.59139 10.9443 4.13228 10.506 3.60334 10.5156C3.06308 10.5278 2.69447 11.0127 2.43312 11.4334C2.19655 11.8126 1.87718 12.1358 1.49799 12.3796C1.1188 12.6234 0.689212 12.7817 0.240122 12.8433C0.167342 12.8535 0.101653 12.8915 0.0575052 12.9492C0.0133574 13.0068 -0.00563263 13.0792 0.00471277 13.1506C0.0150582 13.2219 0.0538915 13.2863 0.11267 13.3296C0.171448 13.3729 0.245357 13.3915 0.318137 13.3814C0.849003 13.3082 1.35673 13.1206 1.80478 12.832C2.25284 12.5434 2.63009 12.1611 2.9094 11.7125C3.00886 11.5519 3.31156 11.0624 3.61777 11.0559C3.87834 11.0491 4.15022 11.3236 4.25164 11.5795C4.36866 11.88 4.25905 12.1707 4.07455 12.5798C3.33341 14.2204 3.24915 15.9852 3.84128 17.4257C4.33004 18.6139 5.34307 19.6208 6.5519 20.119C7.6995 20.5917 8.96685 20.6108 10.1137 20.1489C11.2905 19.672 12.206 18.7508 12.8348 17.4104C13.7023 15.5603 14.0749 13.4334 13.8923 11.3902C14.4146 11.3447 14.9584 11.4429 15.4994 11.6777C16.5647 12.1408 17.4108 13.0296 17.7638 14.0552C17.9756 14.679 18.3618 15.232 18.8785 15.6512C19.3951 16.0704 20.0215 16.3389 20.6862 16.4261C20.759 16.4358 20.8327 16.4168 20.8912 16.3733C20.9497 16.3297 20.9882 16.2651 20.9981 16.1938C21.008 16.1224 20.9886 16.0502 20.9442 15.9928C20.8997 15.9355 20.8339 15.8978 20.7611 15.8881V15.8873Z" fill="#808080"/>
<path d="M1.28067 6.10027C1.96954 5.78294 2.71857 5.6106 3.47952 5.59434C3.51853 5.59434 3.55363 5.59434 3.58952 5.59434C5.3624 5.59434 7.17547 6.48612 8.44125 7.98019C8.46661 8.0104 8.49235 8.04023 8.51693 8.07159C8.54317 8.10478 8.5769 8.13155 8.61548 8.1498C8.65406 8.16806 8.69643 8.17728 8.73927 8.17676C8.7821 8.17625 8.82422 8.16599 8.86233 8.14681C8.90044 8.12764 8.93349 8.10005 8.95888 8.06623C9.42385 7.44711 10.0753 6.9473 10.8425 6.62034C11.8823 6.17433 13.0053 5.94488 14.1402 5.94654C15.3608 5.94654 16.5739 6.20428 17.7449 6.71136C18.7138 7.13433 19.6058 7.70923 20.3861 8.41346C20.4129 8.43756 20.4443 8.45626 20.4785 8.46846C20.5127 8.48067 20.549 8.48616 20.5853 8.48462C20.6217 8.48307 20.6574 8.47453 20.6903 8.45946C20.7233 8.4444 20.7529 8.42311 20.7775 8.39683C20.8021 8.37054 20.8212 8.33976 20.8336 8.30624C20.8461 8.27273 20.8517 8.23714 20.8501 8.20151C20.8485 8.16587 20.8398 8.13089 20.8244 8.09856C20.8091 8.06623 20.7874 8.03718 20.7606 8.01308C19.936 7.26934 18.9933 6.66228 17.9696 6.21575C16.7268 5.67617 15.4388 5.40237 14.1402 5.40237C12.9291 5.40093 11.7308 5.64572 10.621 6.1213C9.89453 6.42672 9.24812 6.88956 8.7303 7.47503C7.36855 5.95304 5.46226 5.05017 3.58991 5.05017C3.54856 5.05017 3.5076 5.05017 3.46626 5.05017C2.62934 5.06823 1.80554 5.25776 1.0478 5.60658C0.981176 5.637 0.929609 5.69213 0.904445 5.75983C0.87928 5.82753 0.882579 5.90225 0.913615 5.96757C0.944651 6.03289 1.00088 6.08344 1.06994 6.10811C1.139 6.13278 1.21522 6.12955 1.28184 6.09912L1.28067 6.10027Z" fill="#808080"/>
<path d="M0.3351 12.2758C0.67026 12.2068 0.987415 12.0712 1.26694 11.8772C1.54646 11.6832 1.78239 11.4351 1.96015 11.1481C2.15128 10.8391 2.85732 9.95383 3.56959 9.93815H3.59494C4.04119 9.93815 4.6185 10.2666 5.03198 10.7557C5.38304 11.1699 5.55858 11.6265 5.49031 11.9477C5.44857 12.1427 5.32414 12.4383 5.21414 12.6995C5.11896 12.9263 5.0191 13.1691 4.9251 13.4284C4.44999 14.7469 4.43126 15.955 4.86932 17.0185C5.26706 17.9609 6.02459 18.7137 6.98039 19.1164C7.86508 19.4823 8.83519 19.4907 9.69062 19.1431C11.068 18.5856 11.641 17.3584 11.8278 16.9557C12.7049 15.071 13.0161 12.9804 12.725 10.9286C12.7137 10.849 12.7012 10.7691 12.686 10.6861C12.647 10.4185 12.695 10.7492 12.6696 10.5775C13.1354 10.3878 13.635 10.2909 14.1394 10.2923C14.7634 10.2971 15.3794 10.4305 15.9474 10.6838C17.2928 11.2689 18.3659 12.3989 18.8141 13.7049C18.9533 14.1084 19.1974 14.4693 19.5222 14.7522C19.847 15.0351 20.2414 15.2302 20.6665 15.3183C20.7385 15.333 20.8134 15.319 20.8749 15.2796C20.9364 15.2401 20.9794 15.1783 20.9944 15.1077C21.0094 15.0372 20.9952 14.9637 20.9549 14.9034C20.9146 14.8432 20.8516 14.801 20.7796 14.7863C20.4491 14.7179 20.1424 14.5661 19.8898 14.3461C19.6372 14.1261 19.4474 13.8454 19.3391 13.5316C18.8418 12.0846 17.6575 10.8337 16.1729 10.1882C15.5342 9.90377 14.8416 9.75432 14.1402 9.74962C13.538 9.74812 12.942 9.86923 12.3899 10.1053C12.2175 10.1817 12.0724 10.2758 12.0943 10.4594C12.1052 10.5481 12.1227 10.6624 12.1391 10.7684C12.152 10.8506 12.1641 10.9271 12.175 11.0051C12.4522 12.9539 12.157 14.9398 11.3243 16.7301C11.1585 17.085 10.6545 18.1661 9.47882 18.6422C8.76225 18.9332 7.93841 18.9236 7.19532 18.6165C6.37523 18.2709 5.72532 17.6249 5.38421 16.8162C4.99804 15.8789 5.01949 14.8001 5.44857 13.6097C5.53712 13.3626 5.63464 13.1271 5.72709 12.9076C5.8757 12.5542 5.98493 12.2869 6.03329 12.0594C6.13705 11.5726 5.92212 10.9557 5.45911 10.4097C4.93875 9.7936 4.20736 9.39551 3.59572 9.39551H3.56413C2.39391 9.42075 1.49674 10.8521 1.48699 10.8674C1.34856 11.0908 1.16478 11.284 0.947034 11.4349C0.72929 11.5858 0.482234 11.6912 0.221198 11.7446C0.15309 11.763 0.0946881 11.8061 0.0579067 11.8652C0.0211254 11.9244 0.0087364 11.995 0.0232673 12.0628C0.0377981 12.1305 0.0781539 12.1903 0.136101 12.2299C0.194049 12.2695 0.265222 12.2859 0.3351 12.2758Z" fill="#808080"/>
<path d="M18.9508 7.98902C18.9208 7.96894 18.8869 7.95486 18.8513 7.94759C18.8156 7.94032 18.7789 7.94001 18.7431 7.94667C18.7073 7.95332 18.6733 7.96682 18.6428 7.98639C18.6124 8.00596 18.5861 8.03122 18.5657 8.06073C18.5452 8.09023 18.5308 8.1234 18.5234 8.15834C18.516 8.19329 18.5157 8.22932 18.5224 8.26439C18.5292 8.29946 18.543 8.33287 18.563 8.36272C18.5829 8.39257 18.6087 8.41827 18.6388 8.43835C19.341 8.90653 19.9709 9.47126 20.5092 10.1152C20.5322 10.1428 20.5606 10.1657 20.5927 10.1826C20.6248 10.1995 20.6599 10.21 20.6962 10.2135C20.7324 10.2171 20.769 10.2136 20.8038 10.2033C20.8387 10.193 20.8711 10.1761 20.8993 10.1535C20.9274 10.1309 20.9508 10.103 20.968 10.0716C20.9852 10.0401 20.9959 10.0057 20.9996 9.97017C21.0032 9.93466 20.9996 9.8988 20.9891 9.86464C20.9786 9.83047 20.9613 9.79867 20.9383 9.77105C20.3665 9.08663 19.6971 8.48646 18.9508 7.98902Z" fill="#808080"/>
<path d="M11.064 7.11639C10.2722 7.4552 9.6379 7.98331 9.23066 8.64602C9.21183 8.67653 9.19932 8.71038 9.19384 8.74562C9.18836 8.78087 9.19001 8.81683 9.1987 8.85146C9.20739 8.88608 9.22296 8.91868 9.2445 8.94741C9.26605 8.97613 9.29316 9.00042 9.32428 9.01887C9.3554 9.03733 9.38992 9.04959 9.42587 9.05497C9.46183 9.06034 9.49851 9.05873 9.53383 9.0502C9.56914 9.04168 9.6024 9.02642 9.6317 9.0053C9.661 8.98418 9.68577 8.9576 9.7046 8.92709C10.0533 8.36266 10.6018 7.90912 11.2863 7.61581C13.1724 6.81008 15.3072 6.8422 17.2966 7.70644C17.3638 7.73565 17.4402 7.73748 17.5088 7.71152C17.5774 7.68556 17.6327 7.63394 17.6625 7.56801C17.6923 7.50209 17.6941 7.42726 17.6677 7.35999C17.6412 7.29272 17.5885 7.23852 17.5213 7.20931C15.3872 6.28159 13.0939 6.24908 11.064 7.11639Z" fill="#808080"/>
<path d="M0.596385 7.72519C0.660888 7.72382 0.723132 7.70164 0.773479 7.66209C1.62228 7.03073 2.54012 6.70071 3.50399 6.68045C4.97613 6.64871 6.50756 7.3944 7.5904 8.6728C8.60459 9.86744 9.02548 11.3042 8.74658 12.6143C8.64516 13.0912 8.45988 13.5351 8.29644 13.9267L8.29215 13.9374C8.20477 14.1424 8.12753 14.3275 8.06122 14.5145C8.03757 14.5823 8.04225 14.6566 8.07426 14.7211C8.10627 14.7856 8.16301 14.835 8.23207 14.8587C8.26129 14.8686 8.29202 14.8737 8.32296 14.8736C8.38046 14.8736 8.43653 14.856 8.48337 14.8233C8.53021 14.7906 8.5655 14.7444 8.58431 14.6912C8.64555 14.5183 8.72006 14.3416 8.80431 14.1432L8.80938 14.1309C8.9818 13.7175 9.17722 13.2491 9.28878 12.7237C9.60084 11.2502 9.13861 9.6468 8.01636 8.32595C6.82586 6.92136 5.13645 6.10263 3.49151 6.13781C2.40633 6.16075 1.37614 6.53054 0.429434 7.23723C0.388302 7.2688 0.356876 7.3109 0.338633 7.35889C0.32039 7.40687 0.31604 7.45887 0.326064 7.50913C0.339031 7.57006 0.372963 7.62478 0.422175 7.66411C0.471387 7.70345 0.532891 7.72501 0.596385 7.72519Z" fill="#808080"/>
<path d="M0.39105 11.1248C0.650999 11.0123 0.869031 10.8237 1.01517 10.5848C1.02531 10.568 2.06329 8.88425 3.5526 8.85251C4.34249 8.83454 5.2381 9.2984 5.88524 10.0628C6.46449 10.7443 6.71609 11.5129 6.57645 12.1707C6.51325 12.4647 6.37439 12.794 6.23708 13.1206C6.14775 13.3336 6.0557 13.5538 5.97105 13.7898C5.58878 14.8529 5.5642 15.8028 5.89772 16.6131C6.1829 17.2884 6.72605 17.8276 7.4112 18.1156C8.03064 18.3711 8.69064 18.3745 9.26912 18.1401C10.1359 17.7894 10.5708 17.0384 10.8224 16.5034C11.6088 14.8082 11.8872 12.9287 11.6252 11.0842C11.6146 11.0078 11.6022 10.9282 11.5889 10.8475C11.5499 10.6024 11.5109 10.3504 11.5343 10.2085C11.5635 10.0319 11.7909 9.76838 12.1693 9.60662C13.4804 9.04639 14.9814 9.0766 16.3958 9.6919C18.0189 10.3971 19.3151 11.7684 19.8624 13.363C19.9238 13.5401 20.0219 13.7028 20.1505 13.841C20.2792 13.9792 20.4355 14.0899 20.6097 14.1661C20.677 14.1953 20.7533 14.1971 20.8219 14.1712C20.8905 14.1452 20.9458 14.0936 20.9756 14.0277C21.0054 13.9617 21.0073 13.8869 20.9808 13.8196C20.9543 13.7524 20.9017 13.6982 20.8344 13.669C20.7299 13.6239 20.6361 13.5579 20.5591 13.4751C20.4821 13.3924 20.4236 13.2948 20.3874 13.1886C19.7914 11.4544 18.3828 9.96188 16.6201 9.1963C15.0625 8.51867 13.4031 8.48807 11.9478 9.10987C11.4297 9.33167 11.0525 9.72899 10.9874 10.1217C10.9484 10.347 10.994 10.6311 11.0424 10.9378C11.0541 11.0104 11.0662 11.0839 11.0763 11.1592C11.3234 12.9014 11.0599 14.6765 10.3165 16.2774C10.1039 16.7278 9.74345 17.3619 9.05653 17.638C8.61107 17.8185 8.10007 17.8108 7.62496 17.6147C7.07517 17.3841 6.6393 16.9517 6.41066 16.4101C6.12903 15.7255 6.15634 14.9049 6.49258 13.9699C6.57255 13.747 6.66187 13.5332 6.75081 13.3198C6.89475 12.9783 7.04375 12.6254 7.11748 12.282C7.29223 11.4602 6.99773 10.5248 6.31003 9.71484C5.55757 8.82651 4.49852 8.28846 3.5405 8.30911C1.74616 8.34735 0.587647 10.2273 0.540058 10.3053C0.452826 10.4479 0.322692 10.5605 0.167538 10.6277C0.134241 10.6421 0.104172 10.6628 0.0790456 10.6886C0.0539196 10.7145 0.0342293 10.7449 0.021099 10.7782C-0.00541897 10.8454 -0.00360716 10.9202 0.0261358 10.9862C0.0558789 11.0521 0.111117 11.1037 0.179698 11.1297C0.248278 11.1557 0.324585 11.1539 0.39183 11.1248H0.39105Z" fill="#808080"/>
<path d="M0.517265 9.41044C1.02436 8.80967 2.09004 7.79705 3.52707 7.76608C4.65361 7.74007 5.87844 8.35537 6.73621 9.36723C7.53274 10.3064 7.86937 11.4093 7.66029 12.3928C7.57838 12.7753 7.42625 13.1374 7.26632 13.5213C7.1805 13.7259 7.09196 13.9374 7.01511 14.1515C6.721 14.968 6.69096 15.6403 6.92422 16.207C7.09773 16.615 7.42694 16.9405 7.84168 17.1141C8.74704 17.4877 9.40704 16.9202 9.81623 16.0491C10.5157 14.5435 10.7638 12.8739 10.5316 11.2353C10.5207 11.1588 10.509 11.0862 10.4973 11.0116C10.4435 10.6674 10.3924 10.3431 10.4439 10.0338C10.5609 9.33969 11.185 8.84333 11.7311 8.61044C15.209 7.12478 18.9806 9.22229 20.4812 12.0189C20.5155 12.0826 20.5741 12.1304 20.6443 12.1517C20.7145 12.1731 20.7905 12.1662 20.8555 12.1326C20.9205 12.099 20.9693 12.0415 20.991 11.9727C21.0128 11.9039 21.0058 11.8294 20.9716 11.7657C20.1181 10.1756 18.6553 8.85939 16.9589 8.15308C15.1474 7.39935 13.2122 7.3852 11.5099 8.11254C10.6428 8.48233 10.0253 9.18329 9.89775 9.94619C9.83183 10.3405 9.8919 10.7236 9.95002 11.0934C9.96134 11.1657 9.97304 11.238 9.98318 11.3106C10.2015 12.8466 9.96916 14.4118 9.31342 15.8231C9.03686 16.412 8.66746 16.8659 8.05661 16.6146C7.77885 16.4965 7.55815 16.2781 7.44029 16.0047C7.26008 15.5665 7.29284 15.02 7.54015 14.3332C7.61231 14.1317 7.69618 13.9267 7.78122 13.7286C7.94427 13.3389 8.11278 12.9359 8.20483 12.5049C8.44902 11.3577 8.06987 10.0884 7.1649 9.02115C6.20142 7.88501 4.80261 7.19514 3.51732 7.22382C1.85795 7.25862 0.658082 8.3917 0.0905248 9.06359C0.0673198 9.09106 0.049861 9.12274 0.0391452 9.15683C0.0284295 9.19091 0.0246666 9.22673 0.0280714 9.26224C0.0314762 9.29775 0.0419821 9.33226 0.0589892 9.36379C0.0759963 9.39532 0.0991716 9.42325 0.127192 9.446C0.155212 9.46875 0.187528 9.48587 0.222296 9.49637C0.257063 9.50688 0.293601 9.51057 0.329823 9.50723C0.366044 9.50389 0.401241 9.49359 0.433402 9.47692C0.465564 9.46025 0.49406 9.43753 0.517265 9.41006V9.41044Z" fill="#808080"/>
</svg>
