<svg width="34" height="34" viewBox="0 0 34 34" fill="none" xmlns="http://www.w3.org/2000/svg">
<path d="M28.7833 5.21671C26.0487 2.46421 22.4394 0.752069 18.5777 0.37545C14.716 -0.00116811 10.8439 0.981344 7.62899 3.1536C4.41405 5.32586 2.05774 8.55173 0.966288 12.2751C-0.125165 15.9984 0.116639 19.9859 1.65001 23.55C1.80983 23.8813 1.86227 24.2542 1.80001 24.6167L0.333347 31.6667C0.276841 31.937 0.28838 32.2171 0.366926 32.4818C0.445473 32.7466 0.588567 32.9876 0.783347 33.1834C0.943021 33.3419 1.13314 33.4664 1.34224 33.5495C1.55134 33.6326 1.77509 33.6724 2.00001 33.6667H2.33335L9.46668 32.2334C9.82923 32.1898 10.1969 32.2415 10.5333 32.3834C14.0975 33.9168 18.085 34.1586 21.8083 33.0671C25.5317 31.9757 28.7575 29.6193 30.9298 26.4044C33.102 23.1895 34.0846 19.3174 33.7079 15.4557C33.3313 11.594 31.6192 7.98469 28.8667 5.25005L28.7833 5.21671ZM10.3333 18.6667C10.0037 18.6667 9.68148 18.569 9.4074 18.3858C9.13331 18.2027 8.91969 17.9424 8.79355 17.6379C8.6674 17.3333 8.63439 16.9982 8.6987 16.6749C8.76301 16.3516 8.92175 16.0546 9.15483 15.8215C9.38792 15.5884 9.68489 15.4297 10.0082 15.3654C10.3315 15.3011 10.6666 15.3341 10.9712 15.4602C11.2757 15.5864 11.536 15.8 11.7191 16.0741C11.9023 16.3482 12 16.6704 12 17C12 17.4421 11.8244 17.866 11.5119 18.1786C11.1993 18.4911 10.7754 18.6667 10.3333 18.6667V18.6667ZM17 18.6667C16.6704 18.6667 16.3481 18.569 16.0741 18.3858C15.8 18.2027 15.5864 17.9424 15.4602 17.6379C15.3341 17.3333 15.3011 16.9982 15.3654 16.6749C15.4297 16.3516 15.5884 16.0546 15.8215 15.8215C16.0546 15.5884 16.3516 15.4297 16.6749 15.3654C16.9982 15.3011 17.3333 15.3341 17.6378 15.4602C17.9424 15.5864 18.2027 15.8 18.3858 16.0741C18.5689 16.3482 18.6667 16.6704 18.6667 17C18.6667 17.4421 18.4911 17.866 18.1785 18.1786C17.866 18.4911 17.442 18.6667 17 18.6667ZM23.6667 18.6667C23.337 18.6667 23.0148 18.569 22.7407 18.3858C22.4666 18.2027 22.253 17.9424 22.1269 17.6379C22.0007 17.3333 21.9677 16.9982 22.032 16.6749C22.0963 16.3516 22.2551 16.0546 22.4882 15.8215C22.7213 15.5884 23.0182 15.4297 23.3415 15.3654C23.6648 15.3011 23.9999 15.3341 24.3045 15.4602C24.609 15.5864 24.8693 15.8 25.0525 16.0741C25.2356 16.3482 25.3333 16.6704 25.3333 17C25.3333 17.4421 25.1577 17.866 24.8452 18.1786C24.5326 18.4911 24.1087 18.6667 23.6667 18.6667Z" fill="#FDB912"/>
</svg>
