<svg width="55" height="63" viewBox="0 0 55 63" fill="none" xmlns="http://www.w3.org/2000/svg">
<g clip-path="url(#clip0_3_995)">
<path d="M31.3759 53.8754L27.1618 24.8132C27.1122 24.4723 26.9897 24.1458 26.8025 23.8557C26.6153 23.5656 26.3676 23.3187 26.0762 23.1315L13.5146 15.0351C13.0205 14.7154 12.4263 14.5844 11.8423 14.6664C11.2582 14.7484 10.724 15.038 10.3388 15.4812L0.586624 26.7648C0.361288 27.0268 0.194655 27.3332 0.0977808 27.6639C0.000907056 27.9946 -0.0239924 28.342 0.0247347 28.683L4.23891 57.7452C4.28407 58.0595 4.39129 58.3619 4.55442 58.635C4.71756 58.9082 4.9334 59.1467 5.18959 59.3369C5.44578 59.5271 5.73727 59.6652 6.04736 59.7435C6.35745 59.8217 6.68005 59.8384 6.99666 59.7927L18.1535 58.2135L29.3104 56.621C29.628 56.576 29.9335 56.4691 30.2093 56.3066C30.4852 56.1441 30.726 55.9291 30.9179 55.674C31.1098 55.4189 31.249 55.1287 31.3276 54.82C31.4063 54.5114 31.4227 54.1904 31.3759 53.8754ZM13.5573 26.5061C12.9985 26.5855 12.4286 26.4988 11.9195 26.2568C11.4104 26.0148 10.985 25.6284 10.6972 25.1466C10.4094 24.6647 10.2719 24.109 10.3023 23.5496C10.3327 22.9903 10.5295 22.4524 10.8679 22.0041C11.2063 21.5557 11.671 21.217 12.2034 21.0307C12.7357 20.8444 13.3118 20.819 13.8587 20.9575C14.4057 21.0961 14.8989 21.3925 15.2761 21.8092C15.6533 22.226 15.8975 22.7443 15.9779 23.2988C16.0313 23.6671 16.011 24.0423 15.9183 24.4029C15.8255 24.7634 15.662 25.1023 15.4373 25.4002C15.2125 25.698 14.9307 25.949 14.6081 26.1388C14.2856 26.3285 13.9285 26.4534 13.5573 26.5061Z" fill="#FF313B"/>
<path d="M27.1617 24.8132C27.1122 24.4723 26.9897 24.1458 26.8025 23.8557C26.6152 23.5656 26.3676 23.3187 26.0762 23.1315L13.5146 15.0352C13.2275 14.8511 12.9046 14.7294 12.5668 14.6779C12.2291 14.6263 11.8841 14.6463 11.5547 14.7363L6.12908 23.794C5.91531 24.1497 5.78084 24.5468 5.7347 24.9585C5.68857 25.3701 5.73184 25.7868 5.86162 26.1805L16.4768 58.4366L18.1535 58.2136L29.3104 56.621C29.95 56.5299 30.5269 56.1904 30.9143 55.6772C31.3017 55.164 31.4677 54.5191 31.3759 53.8843L27.1617 24.8132Z" fill="#FF8113"/>
<path d="M54.7596 47.5678L40.0875 12.3274C39.9164 11.912 39.6575 11.5377 39.3284 11.2299C38.9992 10.9221 38.6074 10.6879 38.1793 10.5431L19.7628 4.36935C19.0378 4.12496 18.248 4.15012 17.5403 4.44016C16.8325 4.7302 16.255 5.26539 15.915 5.94624L7.27989 23.2386C7.07967 23.6393 6.96806 24.0778 6.95256 24.5248C6.93705 24.9718 7.018 25.4169 7.18999 25.8303L21.8643 61.0707C22.0227 61.4516 22.2551 61.7977 22.5484 62.0894C22.8416 62.3811 23.1899 62.6126 23.5733 62.7706C23.9568 62.9287 24.3678 63.0102 24.783 63.0105C25.1982 63.0108 25.6094 62.9299 25.9931 62.7725L39.5189 57.2255L53.0424 51.6673C53.4265 51.5101 53.7756 51.2794 54.0698 50.9883C54.364 50.6971 54.5975 50.3514 54.757 49.9706C54.9164 49.5899 54.9987 49.1818 54.9992 48.7695C54.9996 48.3572 54.9182 47.9489 54.7596 47.5678ZM23.5185 18.7956C22.8407 19.0739 22.095 19.1465 21.3756 19.0042C20.6563 18.8619 19.9956 18.5111 19.4771 17.9961C18.9587 17.4811 18.6058 16.8252 18.4631 16.1112C18.3203 15.3972 18.3942 14.6572 18.6752 13.9848C18.9563 13.3125 19.432 12.738 20.0421 12.3339C20.6523 11.9298 21.3694 11.7144 22.103 11.7149C22.8365 11.7153 23.5534 11.9316 24.163 12.3364C24.7726 12.7413 25.2476 13.3164 25.5278 13.9891C25.9013 14.8904 25.8992 15.9019 25.5221 16.8017C25.145 17.7016 24.4236 18.4162 23.5163 18.7889L23.5185 18.7956Z" fill="#E59F03"/>
<path d="M24.7861 61.4923C24.4609 61.4929 24.1429 61.3973 23.8727 61.2177C23.6024 61.0381 23.3923 60.7827 23.269 60.4841L8.59468 25.2549C8.50733 25.041 8.46639 24.8113 8.47452 24.5808C8.48266 24.3502 8.53968 24.1239 8.64188 23.9166L17.2747 6.61762C17.4514 6.26358 17.7517 5.98534 18.1197 5.83475C18.4877 5.68415 18.8983 5.67146 19.2751 5.79906L37.6916 11.9951C37.9132 12.0693 38.1164 12.1897 38.2873 12.3482C38.4583 12.5067 38.5931 12.6996 38.6827 12.914L53.3548 48.1544C53.5197 48.5553 53.5176 49.0046 53.3491 49.4039C53.1805 49.8032 52.8593 50.1199 52.4558 50.2845L25.4132 61.3674C25.2145 61.4497 25.0014 61.4922 24.7861 61.4923ZM22.089 10.193C20.9677 10.193 19.8761 10.5509 18.9754 11.2137C18.0748 11.8765 17.4127 12.8092 17.087 13.874C16.7613 14.9387 16.7892 16.0792 17.1666 17.1271C17.544 18.1749 18.251 19.0745 19.183 19.6932C20.1151 20.3118 21.2229 20.6166 22.3429 20.5627C23.4629 20.5087 24.5357 20.0989 25.403 19.3936C26.2703 18.6883 26.8861 17.7249 27.1595 16.6457C27.4329 15.5666 27.3493 14.4287 26.9213 13.4003C26.5267 12.453 25.8578 11.6432 24.9992 11.0735C24.1406 10.5037 23.1309 10.1996 22.098 10.1996L22.089 10.193Z" fill="#FDB912"/>
<path d="M36.979 14.2233L21.7114 51.6294C21.5558 52.0075 21.5558 52.4311 21.7114 52.8093L24.6669 59.9064C24.6757 59.9295 24.6913 59.9494 24.7118 59.9634C24.7323 59.9773 24.7567 59.9847 24.7815 59.9845L24.8287 59.9733L51.8781 48.8793C51.8936 48.8737 51.9077 48.8649 51.9193 48.8533C51.931 48.8417 51.9399 48.8278 51.9455 48.8124C51.9522 48.7977 51.9557 48.7817 51.9557 48.7656C51.9557 48.7494 51.9522 48.7334 51.9455 48.7187L37.5814 14.221C37.5565 14.162 37.5146 14.1116 37.4608 14.0762C37.4071 14.0408 37.3439 14.0221 37.2794 14.0223C37.215 14.0225 37.152 14.0418 37.0985 14.0775C37.045 14.1133 37.0034 14.164 36.979 14.2233Z" fill="#FCC74F"/>
<path d="M12.4313 12.9229L13.4674 10.8464C9.05321 8.59596 5.79425 5.81911 5.35598 3.93219C5.30066 3.73949 5.29219 3.53652 5.33126 3.33995C5.37033 3.14337 5.45583 2.9588 5.58074 2.80137C5.76504 2.55826 6.05947 2.28169 6.80565 2.31961C10.3478 2.49358 17.4366 9.11565 20.5405 14.2099C20.6447 14.3806 20.7915 14.5218 20.9667 14.6198C21.1418 14.7179 21.3395 14.7695 21.5406 14.7697C21.7537 14.769 21.9626 14.7112 22.1452 14.6024C22.4105 14.4433 22.6012 14.1861 22.6754 13.8875C22.7496 13.5888 22.7011 13.2732 22.5408 13.0099C19.401 7.86885 11.757 0.24533 6.91579 -1.45892e-05C5.55601 -0.0580051 4.44347 0.419301 3.70402 1.40737C3.37547 1.83708 3.14869 2.33472 3.04052 2.86333C2.93235 3.39194 2.94557 3.93795 3.0792 4.46079C3.97823 8.364 10.4557 11.926 12.4156 12.9363L12.4313 12.9229Z" fill="#374A63"/>
<path d="M26.9707 51.6606C26.7263 51.6616 26.4842 51.6146 26.2582 51.5223C25.7916 51.3347 25.4191 50.9709 25.2227 50.5108C25.0263 50.0507 25.022 49.5321 25.2108 49.0689L34.4258 26.5128C34.5195 26.2833 34.6579 26.0744 34.833 25.898C35.008 25.7215 35.2164 25.5811 35.4462 25.4845C35.676 25.388 35.9227 25.3374 36.1722 25.3355C36.4217 25.3336 36.6691 25.3805 36.9004 25.4735C37.1316 25.5664 37.3422 25.7037 37.52 25.8775C37.6978 26.0512 37.8393 26.258 37.9366 26.486C38.0338 26.7141 38.0849 26.9589 38.0868 27.2065C38.0887 27.4541 38.0415 27.6996 37.9478 27.9291L28.7328 50.4874C28.5896 50.8345 28.3455 51.1313 28.0317 51.3403C27.7179 51.5492 27.3486 51.6607 26.9707 51.6606Z" fill="#A91D32"/>
<path d="M23.2263 40.3837C22.546 40.3823 21.8722 40.2513 21.2417 39.9978C20.4381 39.673 19.7276 39.1566 19.173 38.4943C18.6184 37.832 18.2369 37.0443 18.0622 36.2009C17.8874 35.3575 17.9248 34.4843 18.1711 33.6586C18.4174 32.8329 18.865 32.0802 19.4743 31.4671C20.0835 30.854 20.8357 30.3993 21.6641 30.1434C22.4926 29.8874 23.3719 29.838 24.2242 29.9996C25.0765 30.1612 25.8755 30.5288 26.5506 31.0698C27.2256 31.6108 27.7559 32.3086 28.0945 33.1014C28.4333 33.8983 28.5683 34.7659 28.4873 35.627C28.4064 36.4881 28.1121 37.316 27.6306 38.0369C27.1491 38.7578 26.4954 39.3494 25.7278 39.7588C24.9601 40.1683 24.1023 40.3829 23.2308 40.3837H23.2263ZM23.2263 33.6746C23.0292 33.6739 22.8342 33.7134 22.6532 33.7906C22.3847 33.904 22.1561 34.0938 21.9962 34.336C21.8364 34.5782 21.7524 34.862 21.7549 35.1515C21.7574 35.441 21.8462 35.7233 22.0103 35.9628C22.1743 36.2022 22.4061 36.3881 22.6765 36.4969C22.9469 36.6057 23.2437 36.6326 23.5294 36.5742C23.8152 36.5158 24.0771 36.3746 24.2821 36.1686C24.4871 35.9626 24.6261 35.7009 24.6814 35.4167C24.7366 35.1324 24.7058 34.8382 24.5928 34.5713C24.4781 34.3056 24.2871 34.0794 24.0437 33.9208C23.8003 33.7621 23.5152 33.6781 23.224 33.6791L23.2263 33.6746Z" fill="#A91D32"/>
<path d="M39.9212 47.0928C38.6112 47.0957 37.347 46.6155 36.3738 45.7454C35.4006 44.8753 34.788 43.6773 34.6548 42.3842C34.5217 41.091 34.8775 39.7948 35.6532 38.7474C36.4289 37.6999 37.5692 36.9759 38.8526 36.7158C40.1361 36.4558 41.4711 36.6783 42.5985 37.3402C43.7259 38.002 44.5652 39.056 44.9536 40.2975C45.3419 41.539 45.2515 42.8794 44.6999 44.0584C44.1483 45.2375 43.1749 46.171 41.9687 46.6779C41.3208 46.95 40.6247 47.091 39.9212 47.0928ZM39.9212 40.3837C39.7232 40.3831 39.5272 40.4233 39.3458 40.5019C39.0766 40.6152 38.8472 40.805 38.6867 41.0476C38.5262 41.2901 38.4418 41.5745 38.444 41.8646C38.4463 42.1548 38.5352 42.4377 38.6995 42.6778C38.8638 42.9178 39.0961 43.1041 39.3671 43.2132C39.638 43.3222 39.9355 43.3491 40.2219 43.2905C40.5082 43.2318 40.7706 43.0902 40.9759 42.8836C41.1812 42.677 41.3202 42.4146 41.3753 42.1297C41.4304 41.8447 41.3991 41.5499 41.2854 41.2826C41.2101 41.1046 41.1 40.9433 40.9615 40.8078C40.823 40.6723 40.6589 40.5653 40.4786 40.493C40.2987 40.4206 40.1063 40.3835 39.9122 40.3837H39.9212Z" fill="#A91D32"/>
<path d="M26.9708 50.9068C26.6597 50.9063 26.3535 50.83 26.0791 50.6848C25.8046 50.5395 25.5703 50.3297 25.3965 50.0736C25.2228 49.8176 25.1151 49.5232 25.0827 49.2162C25.0503 48.9092 25.0944 48.599 25.2109 48.3128L34.4259 25.7567C34.5196 25.5272 34.658 25.3183 34.833 25.1419C35.0081 24.9654 35.2165 24.825 35.4463 24.7284C35.6761 24.6319 35.9227 24.5813 36.1723 24.5794C36.4218 24.5775 36.6692 24.6244 36.9005 24.7173C37.1317 24.8103 37.3423 24.9476 37.52 25.1214C37.6978 25.2951 37.8394 25.5019 37.9367 25.7299C38.0339 25.958 38.085 26.2028 38.0869 26.4504C38.0888 26.698 38.0415 26.9435 37.9478 27.173L28.7216 49.738C28.5787 50.0826 28.3361 50.3775 28.0245 50.5855C27.7129 50.7935 27.3463 50.9053 26.9708 50.9068Z" fill="white"/>
<path d="M23.2263 39.6298C22.5467 39.632 21.873 39.5048 21.2417 39.2551C20.44 38.9293 19.7315 38.4127 19.1786 37.7509C18.6256 37.0891 18.2453 36.3025 18.0711 35.4604C17.8969 34.6183 17.9342 33.7466 18.1797 32.9221C18.4252 32.0977 18.8713 31.3459 19.4788 30.733C20.0862 30.1201 20.8363 29.6649 21.6629 29.4077C22.4895 29.1504 23.3672 29.099 24.2185 29.2579C25.0699 29.4167 25.8688 29.7811 26.5447 30.3187C27.2207 30.8564 27.7529 31.5509 28.0945 32.3409C28.4327 33.1377 28.5672 34.0052 28.486 34.8661C28.4048 35.727 28.1104 36.5546 27.6291 37.2754C27.1477 37.9961 26.4943 38.5876 25.7269 38.9972C24.9596 39.4068 24.1021 39.6218 23.2308 39.6231L23.2263 39.6298ZM23.2263 32.9208C23.0292 32.92 22.8342 32.9595 22.6532 33.0367C22.3847 33.1501 22.1561 33.3399 21.9962 33.5821C21.8364 33.8243 21.7524 34.1081 21.7549 34.3976C21.7574 34.6871 21.8462 34.9694 22.0103 35.2089C22.1743 35.4483 22.4061 35.6342 22.6765 35.743C22.9469 35.8518 23.2437 35.8787 23.5294 35.8203C23.8152 35.7619 24.0771 35.6208 24.2821 35.4147C24.4871 35.2087 24.6261 34.9471 24.6813 34.6628C24.7366 34.3785 24.7058 34.0843 24.5928 33.8174C24.4788 33.5509 24.2881 33.3238 24.0446 33.1643C23.8012 33.0048 23.5157 32.9201 23.224 32.9208H23.2263Z" fill="white"/>
<path d="M39.9212 46.3389C38.6112 46.3418 37.347 45.8616 36.3738 44.9915C35.4006 44.1214 34.788 42.9235 34.6548 41.6303C34.5217 40.3371 34.8775 39.041 35.6532 37.9935C36.4289 36.946 37.5692 36.222 38.8526 35.9619C40.1361 35.7019 41.4711 35.9244 42.5985 36.5863C43.7259 37.2482 44.5652 38.3021 44.9536 39.5436C45.3419 40.7851 45.2515 42.1255 44.6999 43.3045C44.1483 44.4836 43.1749 45.4172 41.9687 45.924C41.3208 46.1961 40.6247 46.3372 39.9212 46.3389ZM39.9212 39.6298C39.7234 39.6295 39.5277 39.669 39.3458 39.7458C39.0758 39.8589 38.8457 40.0489 38.6846 40.2918C38.5234 40.5347 38.4385 40.8195 38.4406 41.1103C38.4427 41.4011 38.5316 41.6848 38.6961 41.9254C38.8607 42.166 39.0935 42.3528 39.365 42.4621C39.6366 42.5714 39.9347 42.5983 40.2217 42.5394C40.5086 42.4805 40.7715 42.3384 40.9771 42.1312C41.1827 41.924 41.3218 41.6609 41.3766 41.3752C41.4315 41.0896 41.3998 40.7942 41.2854 40.5265C41.1705 40.2619 40.9801 40.0364 40.7377 39.8779C40.4953 39.7194 40.2115 39.6347 39.9212 39.6343V39.6298Z" fill="white"/>
</g>
<defs>
<clipPath id="clip0_3_995">
<rect width="55" height="63" fill="white"/>
</clipPath>
</defs>
</svg>
