<svg width="40" height="40" viewBox="0 0 40 40" fill="none" xmlns="http://www.w3.org/2000/svg">
<g clip-path="url(#clip0_33_2535)">
<path d="M19.77 39.54C30.6887 39.54 39.54 30.6887 39.54 19.77C39.54 8.85133 30.6887 0 19.77 0C8.85133 0 0 8.85133 0 19.77C0 30.6887 8.85133 39.54 19.77 39.54Z" fill="#E16A5C"/>
<path d="M28.95 11.81H10.59V31.03H28.95V11.81Z" fill="white"/>
<path d="M25.42 14.4C25.8563 14.4 26.21 14.0463 26.21 13.61C26.21 13.1737 25.8563 12.82 25.42 12.82C24.9837 12.82 24.63 13.1737 24.63 13.61C24.63 14.0463 24.9837 14.4 25.42 14.4Z" fill="#686D78"/>
<path d="M14.12 14.4C14.5563 14.4 14.91 14.0463 14.91 13.61C14.91 13.1737 14.5563 12.82 14.12 12.82C13.6837 12.82 13.33 13.1737 13.33 13.61C13.33 14.0463 13.6837 14.4 14.12 14.4Z" fill="#686D78"/>
<path d="M25.42 13.97C25.3732 13.97 25.3269 13.9606 25.2837 13.9424C25.2406 13.9242 25.2016 13.8975 25.1689 13.864C25.1363 13.8304 25.1107 13.7906 25.0937 13.747C25.0767 13.7034 25.0687 13.6568 25.07 13.61V12.51C25.07 11.1044 24.5116 9.75628 23.5177 8.76233C22.5237 7.76839 21.1757 7.21 19.77 7.21C18.3644 7.21 17.0163 7.76839 16.0224 8.76233C15.0284 9.75628 14.47 11.1044 14.47 12.51V13.61C14.4714 13.6568 14.4633 13.7034 14.4463 13.747C14.4293 13.7906 14.4037 13.8304 14.3711 13.864C14.3385 13.8975 14.2994 13.9242 14.2563 13.9424C14.2132 13.9606 14.1668 13.97 14.12 13.97C14.0263 13.9674 13.9373 13.9283 13.8719 13.8611C13.8065 13.7939 13.77 13.7038 13.77 13.61V12.51C13.77 10.9187 14.4022 9.39258 15.5274 8.26736C16.6526 7.14214 18.1787 6.51 19.77 6.51C21.3613 6.51 22.8874 7.14214 24.0127 8.26736C25.1379 9.39258 25.77 10.9187 25.77 12.51V13.61C25.7701 13.7038 25.7335 13.7939 25.6681 13.8611C25.6028 13.9283 25.5138 13.9674 25.42 13.97Z" fill="#242C3C"/>
<g style="mix-blend-mode:multiply" opacity="0.6">
<g style="mix-blend-mode:multiply">
<path d="M25.7699 11.77H27.5899L25.7699 9.98L24.1699 8.43C25.0456 9.34438 25.6062 10.5146 25.7699 11.77V11.77Z" fill="#E16A5C"/>
</g>
<g style="mix-blend-mode:multiply">
<path d="M23.87 11.77H25.02C24.8487 10.5564 24.2621 9.43971 23.36 8.61C22.3789 7.71587 21.0974 7.22328 19.77 7.23V7.23C18.4964 7.233 17.2661 7.69283 16.3027 8.52593C15.3393 9.35903 14.7068 10.5101 14.52 11.77H23.87Z" fill="#E16A5C"/>
</g>
<g style="mix-blend-mode:multiply">
<path d="M28.95 11.82V31.02H10.59L19.1 39.53H19.77C21.1479 39.5302 22.5221 39.3861 23.87 39.1C24.5033 38.9667 25.1233 38.8067 25.73 38.62C29.131 37.541 32.1776 35.564 34.5485 32.8975C36.9193 30.2309 38.5263 26.9739 39.2 23.47C39.27 23.07 39.33 22.66 39.39 22.26L28.95 11.82Z" fill="#E16A5C"/>
</g>
</g>
</g>
<defs>
<clipPath id="clip0_33_2535">
<rect width="39.54" height="39.54" fill="white"/>
</clipPath>
</defs>
</svg>
