<svg width="40" height="40" viewBox="0 0 40 40" fill="none" xmlns="http://www.w3.org/2000/svg">
<path d="M20 39.75C30.9076 39.75 39.75 30.9076 39.75 20C39.75 9.09238 30.9076 0.25 20 0.25C9.09238 0.25 0.25 9.09238 0.25 20C0.25 30.9076 9.09238 39.75 20 39.75Z" fill="#6DBEC4"/>
<path d="M31.28 12.94H8.70996V28.46H31.28V12.94Z" fill="#242C3C"/>
<path d="M15.76 18.59H10.12V28.47H15.76V18.59Z" fill="white"/>
<path d="M15.06 19.29V23.53H10.83V19.29H15.06Z" fill="#E36A5C"/>
<path d="M28.46 11.53H25.64V15.76H28.46V11.53Z" fill="white"/>
<path d="M27.05 17.18C27.8287 17.18 28.46 16.5487 28.46 15.77C28.46 14.9913 27.8287 14.36 27.05 14.36C26.2713 14.36 25.64 14.9913 25.64 15.77C25.64 16.5487 26.2713 17.18 27.05 17.18Z" fill="white"/>
<path d="M25.6399 11.53H22.8199V15.76H25.6399V11.53Z" fill="#E36A5C"/>
<path d="M24.2299 17.18C25.0087 17.18 25.6399 16.5487 25.6399 15.77C25.6399 14.9913 25.0087 14.36 24.2299 14.36C23.4512 14.36 22.8199 14.9913 22.8199 15.77C22.8199 16.5487 23.4512 17.18 24.2299 17.18Z" fill="#E36A5C"/>
<path d="M31.28 11.53H28.46V15.76H31.28V11.53Z" fill="#E36A5C"/>
<path d="M29.88 17.18C30.6587 17.18 31.29 16.5487 31.29 15.77C31.29 14.9913 30.6587 14.36 29.88 14.36C29.1012 14.36 28.47 14.9913 28.47 15.77C28.47 16.5487 29.1012 17.18 29.88 17.18Z" fill="#E36A5C"/>
<path d="M22.82 11.53H20V15.76H22.82V11.53Z" fill="white"/>
<path d="M21.41 17.18C22.1887 17.18 22.82 16.5487 22.82 15.77C22.82 14.9913 22.1887 14.36 21.41 14.36C20.6313 14.36 20 14.9913 20 15.77C20 16.5487 20.6313 17.18 21.41 17.18Z" fill="white"/>
<path d="M20.0001 11.53H17.1801V15.76H20.0001V11.53Z" fill="#E36A5C"/>
<path d="M18.5901 17.18C19.3688 17.18 20.0001 16.5487 20.0001 15.77C20.0001 14.9913 19.3688 14.36 18.5901 14.36C17.8113 14.36 17.1801 14.9913 17.1801 15.77C17.1801 16.5487 17.8113 17.18 18.5901 17.18Z" fill="#E36A5C"/>
<path d="M17.18 11.53H14.36V15.76H17.18V11.53Z" fill="white"/>
<path d="M15.77 17.18C16.5487 17.18 17.18 16.5487 17.18 15.77C17.18 14.9913 16.5487 14.36 15.77 14.36C14.9913 14.36 14.36 14.9913 14.36 15.77C14.36 16.5487 14.9913 17.18 15.77 17.18Z" fill="white"/>
<path d="M11.53 11.53H8.70996V15.76H11.53V11.53Z" fill="white"/>
<path d="M10.12 17.18C10.8987 17.18 11.53 16.5487 11.53 15.77C11.53 14.9913 10.8987 14.36 10.12 14.36C9.34124 14.36 8.70996 14.9913 8.70996 15.77C8.70996 16.5487 9.34124 17.18 10.12 17.18Z" fill="white"/>
<path d="M14.36 11.53H11.54V15.76H14.36V11.53Z" fill="#E36A5C"/>
<path d="M12.95 17.18C13.7288 17.18 14.36 16.5487 14.36 15.77C14.36 14.9913 13.7288 14.36 12.95 14.36C12.1713 14.36 11.54 14.9913 11.54 15.77C11.54 16.5487 12.1713 17.18 12.95 17.18Z" fill="#E36A5C"/>
<path d="M29.8801 18.59H17.1801V25.64H29.8801V18.59Z" fill="white"/>
<path d="M29.8801 24.94H17.1801V25.65H29.8801V24.94Z" fill="#E36A5C"/>
<g style="mix-blend-mode:multiply" opacity="0.6">
<g style="mix-blend-mode:multiply">
<path d="M31.29 11.53V28.46H8.70996L20 39.75C25.238 39.75 30.2615 37.6692 33.9653 33.9654C37.6692 30.2615 39.75 25.238 39.75 20L31.29 11.53Z" fill="#6DBEC4"/>
</g>
</g>
</svg>
