<svg width="56" height="50" viewBox="0 0 56 50" fill="none" xmlns="http://www.w3.org/2000/svg">
<g clip-path="url(#clip0_31_2278)">
<path d="M51.344 25.208H4.79999C4.54228 25.2111 4.28773 25.2652 4.05104 25.3672C3.81435 25.4692 3.60021 25.6171 3.42096 25.8023C3.24172 25.9875 3.10092 26.2064 3.0067 26.4462C2.91248 26.6861 2.86669 26.9423 2.87199 27.2V48.048C2.87196 48.5616 3.07432 49.0545 3.43521 49.4199C3.79611 49.7852 4.28646 49.9937 4.79999 50H21.528C21.6848 50 21.8401 49.9689 21.9848 49.9084C22.1295 49.8479 22.2608 49.7592 22.3709 49.6476C22.4811 49.5359 22.568 49.4035 22.6265 49.258C22.6851 49.1125 22.7141 48.9568 22.712 48.8V35.952C22.712 33.392 25.112 31.312 28 31.312C30.888 31.312 33.288 33.392 33.288 35.952V48.8C33.288 49.114 33.4127 49.4152 33.6348 49.6372C33.8568 49.8593 34.158 49.984 34.472 49.984H51.344C51.6 49.984 51.8534 49.9335 52.0898 49.8353C52.3262 49.7371 52.5408 49.5932 52.7214 49.4118C52.9021 49.2304 53.0451 49.0152 53.1423 48.7784C53.2395 48.5416 53.289 48.288 53.288 48.032V27.2C53.2944 26.9407 53.2488 26.6827 53.154 26.4413C53.0592 26.1999 52.917 25.9799 52.7359 25.7942C52.5547 25.6086 52.3382 25.4611 52.0992 25.3604C51.8601 25.2597 51.6034 25.2079 51.344 25.208ZM18.336 42.4H7.6C7.51108 42.4011 7.42283 42.3845 7.34037 42.3512C7.25792 42.3179 7.18289 42.2685 7.11964 42.206C7.05639 42.1435 7.00617 42.0691 6.9719 41.987C6.93763 41.905 6.91999 41.8169 6.91999 41.728V33.8C6.91999 31.4 9.62399 29.496 12.968 29.496C16.312 29.496 19.016 31.424 19.016 33.8V41.728C19.016 41.8169 18.9984 41.905 18.9641 41.987C18.9298 42.0691 18.8796 42.1435 18.8164 42.206C18.7531 42.2685 18.6781 42.3179 18.5956 42.3512C18.5132 42.3845 18.4249 42.4011 18.336 42.4ZM48.568 42.4H37.832C37.7431 42.4011 37.6548 42.3845 37.5724 42.3512C37.4899 42.3179 37.4149 42.2685 37.3516 42.206C37.2884 42.1435 37.2382 42.0691 37.2039 41.987C37.1696 41.905 37.152 41.8169 37.152 41.728V33.8C37.152 31.4 39.864 29.496 43.2 29.496C46.536 29.496 49.248 31.424 49.248 33.8V41.728C49.248 41.8169 49.2304 41.905 49.1961 41.987C49.1618 42.0691 49.1116 42.1435 49.0484 42.206C48.9851 42.2685 48.9101 42.3179 48.8276 42.3512C48.7452 42.3845 48.6569 42.4011 48.568 42.4Z" fill="#EEAC1F"/>
<path d="M51.552 2.536V4.528C51.552 5.20059 51.2848 5.84563 50.8092 6.32122C50.3337 6.79681 49.6886 7.064 49.016 7.064H8.00003C7.3344 7.0535 6.69958 6.78169 6.23261 6.30723C5.76563 5.83277 5.50395 5.19372 5.50403 4.528V2.536C5.50395 1.87028 5.76563 1.23123 6.23261 0.756772C6.69958 0.282314 7.3344 0.0105002 8.00003 0L49.016 0C49.6886 0 50.3337 0.267185 50.8092 0.742777C51.2848 1.21837 51.552 1.86341 51.552 2.536Z" fill="#EF3A49"/>
<path d="M56 21.96C55.8878 22.6214 55.5451 23.2218 55.0326 23.6546C54.5201 24.0875 53.8709 24.325 53.2 24.325C52.5291 24.325 51.8799 24.0875 51.3674 23.6546C50.8549 23.2218 50.5122 22.6214 50.4 21.96C50.2921 22.6167 49.9577 23.215 49.4547 23.6508C48.9517 24.0866 48.312 24.3326 47.6466 24.3459C46.9812 24.3592 46.3321 24.139 45.8121 23.7237C45.2921 23.3083 44.934 22.7239 44.8 22.072C44.7768 22.3845 44.6879 22.6886 44.539 22.9643C44.3901 23.2401 44.1846 23.4812 43.936 23.672C43.3852 24.1075 42.7022 24.3418 42 24.336C41.3338 24.3812 40.6752 24.173 40.156 23.7532C39.6367 23.3333 39.2953 22.7329 39.2 22.072C39.1065 22.7343 38.7659 23.3368 38.2465 23.7582C37.7271 24.1797 37.0674 24.389 36.4 24.344C35.7114 24.3927 35.0314 24.1681 34.5073 23.7188C33.9832 23.2696 33.6572 22.6319 33.6 21.944C33.5428 22.6319 33.2168 23.2696 32.6927 23.7188C32.1686 24.1681 31.4886 24.3927 30.8 24.344C30.1114 24.3927 29.4314 24.1681 28.9073 23.7188C28.3832 23.2696 28.0572 22.6319 28 21.944C27.9428 22.6319 27.6168 23.2696 27.0927 23.7188C26.5686 24.1681 25.8886 24.3927 25.2 24.344C24.5114 24.3927 23.8314 24.1681 23.3073 23.7188C22.7832 23.2696 22.4572 22.6319 22.4 21.944C22.3428 22.6319 22.0168 23.2696 21.4927 23.7188C20.9686 24.1681 20.2886 24.3927 19.6 24.344C18.9326 24.389 18.273 24.1797 17.7535 23.7582C17.2341 23.3368 16.8935 22.7343 16.8 22.072C16.7768 22.3845 16.6879 22.6886 16.539 22.9643C16.3901 23.2401 16.1846 23.4812 15.936 23.672C15.3852 24.1075 14.7022 24.3418 14 24.336C13.3338 24.3812 12.6752 24.173 12.156 23.7532C11.6367 23.3333 11.2953 22.7329 11.2 22.072C11.1065 22.7343 10.7659 23.3368 10.2465 23.7582C9.72705 24.1797 9.06738 24.389 8.4 24.344C7.71143 24.3927 7.03141 24.1681 6.5073 23.7188C5.98319 23.2696 5.65721 22.6319 5.6 21.944C5.54279 22.6319 5.21681 23.2696 4.6927 23.7188C4.16859 24.1681 3.48857 24.3927 2.8 24.344C2.11143 24.3927 1.43141 24.1681 0.907296 23.7188C0.383187 23.2696 0.0572091 22.6319 0 21.944L5.248 11.352V9.888C5.248 9.57186 5.37359 9.26867 5.59713 9.04513C5.82067 8.82158 6.12386 8.696 6.44 8.696H49.6C49.9161 8.696 50.2193 8.82158 50.4429 9.04513C50.6664 9.26867 50.792 9.57186 50.792 9.888V11.352L56 21.96Z" fill="#FCB918"/>
</g>
<defs>
<clipPath id="clip0_31_2278">
<rect width="56" height="50" fill="white"/>
</clipPath>
</defs>
</svg>
