<svg width="50" height="63" viewBox="0 0 50 63" fill="none" xmlns="http://www.w3.org/2000/svg">
<path d="M7.70073 42.9551H2.16536C1.60865 42.9551 1.15735 43.4061 1.15735 43.9625V61.9902C1.15735 62.5465 1.60865 62.9975 2.16536 62.9975H7.70073C8.25744 62.9975 8.70875 62.5465 8.70875 61.9902V43.9625C8.70875 43.4061 8.25744 42.9551 7.70073 42.9551Z" fill="#FF2746"/>
<path d="M20.3245 36.7071H14.7891C14.2324 36.7071 13.7811 37.1581 13.7811 37.7144V61.9902C13.7811 62.5465 14.2324 62.9975 14.7891 62.9975H20.3245C20.8812 62.9975 21.3325 62.5465 21.3325 61.9902V37.7144C21.3325 37.1581 20.8812 36.7071 20.3245 36.7071Z" fill="#FDB912"/>
<path d="M32.9484 29.2801H27.413C26.8563 29.2801 26.405 29.7311 26.405 30.2875V61.9927C26.405 62.549 26.8563 63 27.413 63H32.9484C33.5051 63 33.9564 62.549 33.9564 61.9927V30.2875C33.9564 29.7311 33.5051 29.2801 32.9484 29.2801Z" fill="#FDB912"/>
<path d="M45.5722 22.4401H40.0368C39.4801 22.4401 39.0288 22.8911 39.0288 23.4475V61.9902C39.0288 62.5465 39.4801 62.9975 40.0368 62.9975H45.5722C46.1289 62.9975 46.5802 62.5465 46.5802 61.9902V23.4475C46.5802 22.8911 46.1289 22.4401 45.5722 22.4401Z" fill="#FDB912"/>
<path d="M50 0L48.3548 15.6897L44.8902 13.1825C39.8551 17.4656 19.0154 34.4735 0 38.8461C0 38.8461 27.2761 24.9572 39.4047 9.19294L35.5916 6.41964L50 0Z" fill="#FDB912"/>
</svg>
