<svg width="23" height="22" viewBox="0 0 23 22" fill="none" xmlns="http://www.w3.org/2000/svg">
<path d="M0.69 7.33333H2.3C2.4265 7.33333 2.53 7.23021 2.53 7.10417V2.0625H7.59C7.7165 2.0625 7.82 1.95938 7.82 1.83333V0.229167C7.82 0.103125 7.7165 0 7.59 0H2.415C1.334 0 0.46 0.870833 0.46 1.94792V7.10417C0.46 7.23021 0.5635 7.33333 0.69 7.33333ZM15.41 2.0625H20.47V7.10417C20.47 7.23021 20.5735 7.33333 20.7 7.33333H22.31C22.4365 7.33333 22.54 7.23021 22.54 7.10417V1.94792C22.54 0.870833 21.666 0 20.585 0H15.41C15.2835 0 15.18 0.103125 15.18 0.229167V1.83333C15.18 1.95938 15.2835 2.0625 15.41 2.0625ZM7.59 19.9375H2.53V14.8958C2.53 14.7698 2.4265 14.6667 2.3 14.6667H0.69C0.5635 14.6667 0.46 14.7698 0.46 14.8958V20.0521C0.46 21.1292 1.334 22 2.415 22H7.59C7.7165 22 7.82 21.8969 7.82 21.7708V20.1667C7.82 20.0406 7.7165 19.9375 7.59 19.9375ZM22.31 14.6667H20.7C20.5735 14.6667 20.47 14.7698 20.47 14.8958V19.9375H15.41C15.2835 19.9375 15.18 20.0406 15.18 20.1667V21.7708C15.18 21.8969 15.2835 22 15.41 22H20.585C21.666 22 22.54 21.1292 22.54 20.0521V14.8958C22.54 14.7698 22.4365 14.6667 22.31 14.6667ZM22.77 9.96875H0.23C0.1035 9.96875 0 10.0719 0 10.1979V11.8021C0 11.9281 0.1035 12.0312 0.23 12.0312H22.77C22.8965 12.0312 23 11.9281 23 11.8021V10.1979C23 10.0719 22.8965 9.96875 22.77 9.96875Z" fill="#525252"/>
</svg>
